<?xml version="1.0" encoding="UTF-8" standalone="no"?>
<!DOCTYPE svg PUBLIC "-//W3C//DTD SVG 1.1//EN"
 "http://www.w3.org/Graphics/SVG/1.1/DTD/svg11.dtd">
<!-- Generated by graphviz version 2.43.0 (0)
 -->
<!-- Title: Source/MIDI/ABDSynthsSysEx.h Pages: 1 -->
<svg width="1652pt" height="203pt"
 viewBox="0.00 0.00 1651.50 203.00" xmlns="http://www.w3.org/2000/svg" xmlns:xlink="http://www.w3.org/1999/xlink">
<g id="graph0" class="graph" transform="scale(1 1) rotate(0) translate(4 199)">
<title>Source/MIDI/ABDSynthsSysEx.h</title>
<!-- Node1 -->
<g id="Node000001" class="node">
<title>Node1</title>
<g id="a_Node000001"><a xlink:title=" ">
<polygon fill="#999999" stroke="#666666" points="450,-195 280,-195 280,-176 450,-176 450,-195"/>
<text text-anchor="middle" x="365" y="-183" font-family="Helvetica,sans-Serif" font-size="10.00">Source/MIDI/ABDSynthsSysEx.h</text>
</a>
</g>
</g>
<!-- Node2 -->
<g id="Node000002" class="node">
<title>Node2</title>
<g id="a_Node000002"><a xlink:href="MS2000SysExExporter_8h.html" target="_top" xlink:title=" ">
<polygon fill="white" stroke="#666666" points="463,-140 267,-140 267,-121 463,-121 463,-140"/>
<text text-anchor="middle" x="365" y="-128" font-family="Helvetica,sans-Serif" font-size="10.00">Source/MIDI/MS2000SysExExporter.h</text>
</a>
</g>
</g>
<!-- Node1&#45;&gt;Node2 -->
<g id="edge1_Node000001_Node000002" class="edge">
<title>Node1&#45;&gt;Node2</title>
<g id="a_edge1_Node000001_Node000002"><a xlink:title=" ">
<path fill="none" stroke="#63b8ff" d="M365,-165.66C365,-156.93 365,-146.99 365,-140.09"/>
<polygon fill="#63b8ff" stroke="#63b8ff" points="361.5,-165.75 365,-175.75 368.5,-165.75 361.5,-165.75"/>
</a>
</g>
</g>
<!-- Node3 -->
<g id="Node000003" class="node">
<title>Node3</title>
<g id="a_Node000003"><a xlink:href="DSPCoreTests_8cpp.html" target="_top" xlink:title=" ">
<polygon fill="white" stroke="#666666" points="329.5,-85 162.5,-85 162.5,-66 329.5,-66 329.5,-85"/>
<text text-anchor="middle" x="246" y="-73" font-family="Helvetica,sans-Serif" font-size="10.00">Source/Tests/DSPCoreTests.cpp</text>
</a>
</g>
</g>
<!-- Node1&#45;&gt;Node3 -->
<g id="edge16_Node000001_Node000003" class="edge">
<title>Node1&#45;&gt;Node3</title>
<g id="a_edge16_Node000001_Node000003"><a xlink:title=" ">
<path fill="none" stroke="#63b8ff" d="M309.33,-172.82C290.45,-166.19 270.9,-155.9 258,-140 245.13,-124.14 244.5,-98.74 245.2,-85.38"/>
<polygon fill="#63b8ff" stroke="#63b8ff" points="308.51,-176.23 319.1,-175.96 310.65,-169.57 308.51,-176.23"/>
</a>
</g>
</g>
<!-- Node15 -->
<g id="Node000015" class="node">
<title>Node15</title>
<g id="a_Node000015"><a xlink:href="SysExManager_8cpp.html" target="_top" xlink:title=" ">
<polygon fill="white" stroke="#666666" points="651,-140 481,-140 481,-121 651,-121 651,-140"/>
<text text-anchor="middle" x="566" y="-128" font-family="Helvetica,sans-Serif" font-size="10.00">Source/MIDI/SysExManager.cpp</text>
</a>
</g>
</g>
<!-- Node1&#45;&gt;Node15 -->
<g id="edge15_Node000001_Node000015" class="edge">
<title>Node1&#45;&gt;Node15</title>
<g id="a_edge15_Node000001_Node000015"><a xlink:title=" ">
<path fill="none" stroke="#63b8ff" d="M407.43,-173.31C445.04,-163.39 499.17,-149.12 533.45,-140.08"/>
<polygon fill="#63b8ff" stroke="#63b8ff" points="406.07,-170.05 397.29,-175.98 407.86,-176.82 406.07,-170.05"/>
</a>
</g>
</g>
<!-- Node2&#45;&gt;Node3 -->
<g id="edge2_Node000002_Node000003" class="edge">
<title>Node2&#45;&gt;Node3</title>
<g id="a_edge2_Node000002_Node000003"><a xlink:title=" ">
<path fill="none" stroke="#63b8ff" d="M336.7,-116.9C314.72,-107.11 284.82,-93.79 265.47,-85.17"/>
<polygon fill="#63b8ff" stroke="#63b8ff" points="335.32,-120.11 345.88,-120.98 338.17,-113.72 335.32,-120.11"/>
</a>
</g>
</g>
<!-- Node4 -->
<g id="Node000004" class="node">
<title>Node4</title>
<g id="a_Node000004"><a xlink:href="TestCompat_8cpp.html" target="_top" xlink:title=" ">
<polygon fill="white" stroke="#666666" points="158,-24.5 0,-24.5 0,-5.5 158,-5.5 158,-24.5"/>
<text text-anchor="middle" x="79" y="-12.5" font-family="Helvetica,sans-Serif" font-size="10.00">Source/Tests/TestCompat.cpp</text>
</a>
</g>
</g>
<!-- Node2&#45;&gt;Node4 -->
<g id="edge3_Node000002_Node000004" class="edge">
<title>Node2&#45;&gt;Node4</title>
<g id="a_edge3_Node000002_Node000004"><a xlink:title=" ">
<path fill="none" stroke="#63b8ff" d="M362.02,-111.15C358.68,-96.68 351.81,-77.16 338,-66 329.91,-59.46 202.76,-37 129.68,-24.53"/>
<polygon fill="#63b8ff" stroke="#63b8ff" points="358.59,-111.85 363.93,-120.99 365.46,-110.51 358.59,-111.85"/>
</a>
</g>
</g>
<!-- Node5 -->
<g id="Node000005" class="node">
<title>Node5</title>
<g id="a_Node000005"><a xlink:href="TestCompat_8h.html" target="_top" xlink:title=" ">
<polygon fill="white" stroke="#666666" points="818.5,-85 671.5,-85 671.5,-66 818.5,-66 818.5,-85"/>
<text text-anchor="middle" x="745" y="-73" font-family="Helvetica,sans-Serif" font-size="10.00">Source/Tests/TestCompat.h</text>
</a>
</g>
</g>
<!-- Node2&#45;&gt;Node5 -->
<g id="edge4_Node000002_Node000005" class="edge">
<title>Node2&#45;&gt;Node5</title>
<g id="a_edge4_Node000002_Node000005"><a xlink:title=" ">
<path fill="none" stroke="#63b8ff" d="M436.3,-119.56C507.64,-109.61 616.23,-94.46 683.78,-85.04"/>
<polygon fill="#63b8ff" stroke="#63b8ff" points="435.47,-116.14 426.05,-120.98 436.44,-123.07 435.47,-116.14"/>
</a>
</g>
</g>
<!-- Node5&#45;&gt;Node4 -->
<g id="edge14_Node000005_Node000004" class="edge">
<title>Node5&#45;&gt;Node4</title>
<g id="a_edge14_Node000005_Node000004"><a xlink:title=" ">
<path fill="none" stroke="#63b8ff" d="M661.09,-70.18C548.44,-63.88 342.19,-50.65 167,-30 154.4,-28.52 140.85,-26.55 128.24,-24.55"/>
<polygon fill="#63b8ff" stroke="#63b8ff" points="661.19,-73.69 671.37,-70.74 661.58,-66.7 661.19,-73.69"/>
</a>
</g>
</g>
<!-- Node6 -->
<g id="Node000006" class="node">
<title>Node6</title>
<g id="a_Node000006"><a xlink:href="DSPCoreTests__CalSpec_8cpp.html" target="_top" xlink:title=" ">
<polygon fill="white" stroke="#666666" points="323.5,-30 176.5,-30 176.5,0 323.5,0 323.5,-30"/>
<text text-anchor="start" x="184.5" y="-18" font-family="Helvetica,sans-Serif" font-size="10.00">Source/Tests/DSPCoreTests</text>
<text text-anchor="middle" x="250" y="-7" font-family="Helvetica,sans-Serif" font-size="10.00">_CalSpec.cpp</text>
</a>
</g>
</g>
<!-- Node5&#45;&gt;Node6 -->
<g id="edge5_Node000005_Node000006" class="edge">
<title>Node5&#45;&gt;Node6</title>
<g id="a_edge5_Node000005_Node000006"><a xlink:title=" ">
<path fill="none" stroke="#63b8ff" d="M661.15,-67C577.57,-59.16 445.65,-45.81 332,-30 329.28,-29.62 326.52,-29.22 323.72,-28.81"/>
<polygon fill="#63b8ff" stroke="#63b8ff" points="661.06,-70.5 671.35,-67.95 661.71,-63.53 661.06,-70.5"/>
</a>
</g>
</g>
<!-- Node7 -->
<g id="Node000007" class="node">
<title>Node7</title>
<g id="a_Node000007"><a xlink:href="DSPCoreTests__EqualizerParity_8cpp.html" target="_top" xlink:title=" ">
<polygon fill="white" stroke="#666666" points="488.5,-30 341.5,-30 341.5,0 488.5,0 488.5,-30"/>
<text text-anchor="start" x="349.5" y="-18" font-family="Helvetica,sans-Serif" font-size="10.00">Source/Tests/DSPCoreTests</text>
<text text-anchor="middle" x="415" y="-7" font-family="Helvetica,sans-Serif" font-size="10.00">_EqualizerParity.cpp</text>
</a>
</g>
</g>
<!-- Node5&#45;&gt;Node7 -->
<g id="edge6_Node000005_Node000007" class="edge">
<title>Node5&#45;&gt;Node7</title>
<g id="a_edge6_Node000005_Node000007"><a xlink:title=" ">
<path fill="none" stroke="#63b8ff" d="M687.05,-64.23C631.85,-54.44 548.54,-39.67 488.66,-29.06"/>
<polygon fill="#63b8ff" stroke="#63b8ff" points="686.56,-67.69 697.02,-65.99 687.78,-60.8 686.56,-67.69"/>
</a>
</g>
</g>
<!-- Node8 -->
<g id="Node000008" class="node">
<title>Node8</title>
<g id="a_Node000008"><a xlink:href="DSPCoreTests__Panic_8cpp.html" target="_top" xlink:title=" ">
<polygon fill="white" stroke="#666666" points="653.5,-30 506.5,-30 506.5,0 653.5,0 653.5,-30"/>
<text text-anchor="start" x="514.5" y="-18" font-family="Helvetica,sans-Serif" font-size="10.00">Source/Tests/DSPCoreTests</text>
<text text-anchor="middle" x="580" y="-7" font-family="Helvetica,sans-Serif" font-size="10.00">_Panic.cpp</text>
</a>
</g>
</g>
<!-- Node5&#45;&gt;Node8 -->
<g id="edge7_Node000005_Node000008" class="edge">
<title>Node5&#45;&gt;Node8</title>
<g id="a_edge7_Node000005_Node000008"><a xlink:title=" ">
<path fill="none" stroke="#63b8ff" d="M711.39,-62.58C684.82,-53.16 647.69,-40 619.67,-30.06"/>
<polygon fill="#63b8ff" stroke="#63b8ff" points="710.41,-65.95 721.01,-65.99 712.75,-59.35 710.41,-65.95"/>
</a>
</g>
</g>
<!-- Node9 -->
<g id="Node000009" class="node">
<title>Node9</title>
<g id="a_Node000009"><a xlink:href="DSPCoreTests__Pitch_8cpp.html" target="_top" xlink:title=" ">
<polygon fill="white" stroke="#666666" points="818.5,-30 671.5,-30 671.5,0 818.5,0 818.5,-30"/>
<text text-anchor="start" x="679.5" y="-18" font-family="Helvetica,sans-Serif" font-size="10.00">Source/Tests/DSPCoreTests</text>
<text text-anchor="middle" x="745" y="-7" font-family="Helvetica,sans-Serif" font-size="10.00">_Pitch.cpp</text>
</a>
</g>
</g>
<!-- Node5&#45;&gt;Node9 -->
<g id="edge8_Node000005_Node000009" class="edge">
<title>Node5&#45;&gt;Node9</title>
<g id="a_edge8_Node000005_Node000009"><a xlink:title=" ">
<path fill="none" stroke="#63b8ff" d="M745,-55.65C745,-47.36 745,-37.78 745,-30.11"/>
<polygon fill="#63b8ff" stroke="#63b8ff" points="741.5,-55.87 745,-65.87 748.5,-55.87 741.5,-55.87"/>
</a>
</g>
</g>
<!-- Node10 -->
<g id="Node000010" class="node">
<title>Node10</title>
<g id="a_Node000010"><a xlink:href="DSPCoreTests__Portamento_8cpp.html" target="_top" xlink:title=" ">
<polygon fill="white" stroke="#666666" points="983.5,-30 836.5,-30 836.5,0 983.5,0 983.5,-30"/>
<text text-anchor="start" x="844.5" y="-18" font-family="Helvetica,sans-Serif" font-size="10.00">Source/Tests/DSPCoreTests</text>
<text text-anchor="middle" x="910" y="-7" font-family="Helvetica,sans-Serif" font-size="10.00">_Portamento.cpp</text>
</a>
</g>
</g>
<!-- Node5&#45;&gt;Node10 -->
<g id="edge9_Node000005_Node000010" class="edge">
<title>Node5&#45;&gt;Node10</title>
<g id="a_edge9_Node000005_Node000010"><a xlink:title=" ">
<path fill="none" stroke="#63b8ff" d="M778.61,-62.58C805.18,-53.16 842.31,-40 870.33,-30.06"/>
<polygon fill="#63b8ff" stroke="#63b8ff" points="777.25,-59.35 768.99,-65.99 779.59,-65.95 777.25,-59.35"/>
</a>
</g>
</g>
<!-- Node11 -->
<g id="Node000011" class="node">
<title>Node11</title>
<g id="a_Node000011"><a xlink:href="DSPCoreTests__RapidSweep_8cpp.html" target="_top" xlink:title=" ">
<polygon fill="white" stroke="#666666" points="1148.5,-30 1001.5,-30 1001.5,0 1148.5,0 1148.5,-30"/>
<text text-anchor="start" x="1009.5" y="-18" font-family="Helvetica,sans-Serif" font-size="10.00">Source/Tests/DSPCoreTests</text>
<text text-anchor="middle" x="1075" y="-7" font-family="Helvetica,sans-Serif" font-size="10.00">_RapidSweep.cpp</text>
</a>
</g>
</g>
<!-- Node5&#45;&gt;Node11 -->
<g id="edge10_Node000005_Node000011" class="edge">
<title>Node5&#45;&gt;Node11</title>
<g id="a_edge10_Node000005_Node000011"><a xlink:title=" ">
<path fill="none" stroke="#63b8ff" d="M802.95,-64.23C858.15,-54.44 941.46,-39.67 1001.34,-29.06"/>
<polygon fill="#63b8ff" stroke="#63b8ff" points="802.22,-60.8 792.98,-65.99 803.44,-67.69 802.22,-60.8"/>
</a>
</g>
</g>
<!-- Node12 -->
<g id="Node000012" class="node">
<title>Node12</title>
<g id="a_Node000012"><a xlink:href="DSPCoreTests__Transfer_8cpp.html" target="_top" xlink:title=" ">
<polygon fill="white" stroke="#666666" points="1313.5,-30 1166.5,-30 1166.5,0 1313.5,0 1313.5,-30"/>
<text text-anchor="start" x="1174.5" y="-18" font-family="Helvetica,sans-Serif" font-size="10.00">Source/Tests/DSPCoreTests</text>
<text text-anchor="middle" x="1240" y="-7" font-family="Helvetica,sans-Serif" font-size="10.00">_Transfer.cpp</text>
</a>
</g>
</g>
<!-- Node5&#45;&gt;Node12 -->
<g id="edge11_Node000005_Node000012" class="edge">
<title>Node5&#45;&gt;Node12</title>
<g id="a_edge11_Node000005_Node000012"><a xlink:title=" ">
<path fill="none" stroke="#63b8ff" d="M828.85,-67C912.43,-59.16 1044.35,-45.81 1158,-30 1160.72,-29.62 1163.48,-29.22 1166.28,-28.81"/>
<polygon fill="#63b8ff" stroke="#63b8ff" points="828.29,-63.53 818.65,-67.95 828.94,-70.5 828.29,-63.53"/>
</a>
</g>
</g>
<!-- Node13 -->
<g id="Node000013" class="node">
<title>Node13</title>
<g id="a_Node000013"><a xlink:href="DSPCoreTests__VCF_8cpp.html" target="_top" xlink:title=" ">
<polygon fill="white" stroke="#666666" points="1478.5,-30 1331.5,-30 1331.5,0 1478.5,0 1478.5,-30"/>
<text text-anchor="start" x="1339.5" y="-18" font-family="Helvetica,sans-Serif" font-size="10.00">Source/Tests/DSPCoreTests</text>
<text text-anchor="middle" x="1405" y="-7" font-family="Helvetica,sans-Serif" font-size="10.00">_VCF.cpp</text>
</a>
</g>
</g>
<!-- Node5&#45;&gt;Node13 -->
<g id="edge12_Node000005_Node000013" class="edge">
<title>Node5&#45;&gt;Node13</title>
<g id="a_edge12_Node000005_Node000013"><a xlink:title=" ">
<path fill="none" stroke="#63b8ff" d="M828.94,-70.47C941.63,-64.51 1147.92,-51.64 1323,-30 1325.72,-29.66 1328.49,-29.3 1331.29,-28.91"/>
<polygon fill="#63b8ff" stroke="#63b8ff" points="828.47,-66.99 818.67,-71.01 828.84,-73.98 828.47,-66.99"/>
</a>
</g>
</g>
<!-- Node14 -->
<g id="Node000014" class="node">
<title>Node14</title>
<g id="a_Node000014"><a xlink:href="DSPCoreTests__Voice_8cpp.html" target="_top" xlink:title=" ">
<polygon fill="white" stroke="#666666" points="1643.5,-30 1496.5,-30 1496.5,0 1643.5,0 1643.5,-30"/>
<text text-anchor="start" x="1504.5" y="-18" font-family="Helvetica,sans-Serif" font-size="10.00">Source/Tests/DSPCoreTests</text>
<text text-anchor="middle" x="1570" y="-7" font-family="Helvetica,sans-Serif" font-size="10.00">_Voice.cpp</text>
</a>
</g>
</g>
<!-- Node5&#45;&gt;Node14 -->
<g id="edge13_Node000005_Node000014" class="edge">
<title>Node5&#45;&gt;Node14</title>
<g id="a_edge13_Node000005_Node000014"><a xlink:title=" ">
<path fill="none" stroke="#63b8ff" d="M828.59,-72.47C966.4,-68.46 1249.72,-57.39 1488,-30 1490.73,-29.69 1493.5,-29.34 1496.3,-28.97"/>
<polygon fill="#63b8ff" stroke="#63b8ff" points="828.42,-68.97 818.53,-72.76 828.62,-75.97 828.42,-68.97"/>
</a>
</g>
</g>
</g>
</svg>
