<?xml version="1.0" encoding="UTF-8" standalone="no"?>
<!DOCTYPE svg PUBLIC "-//W3C//DTD SVG 1.1//EN"
 "http://www.w3.org/Graphics/SVG/1.1/DTD/svg11.dtd">
<!-- Generated by graphviz version 2.43.0 (0)
 -->
<!-- Title: Source/Core/AppLogger.h Pages: 1 -->
<svg width="1086pt" height="93pt"
 viewBox="0.00 0.00 1086.00 93.00" xmlns="http://www.w3.org/2000/svg" xmlns:xlink="http://www.w3.org/1999/xlink">
<g id="graph0" class="graph" transform="scale(1 1) rotate(0) translate(4 89)">
<title>Source/Core/AppLogger.h</title>
<!-- Node1 -->
<g id="Node000001" class="node">
<title>Node1</title>
<g id="a_Node000001"><a xlink:title=" ">
<polygon fill="#999999" stroke="#666666" points="605.5,-85 467.5,-85 467.5,-66 605.5,-66 605.5,-85"/>
<text text-anchor="middle" x="536.5" y="-73" font-family="Helvetica,sans-Serif" font-size="10.00">Source/Core/AppLogger.h</text>
</a>
</g>
</g>
<!-- Node2 -->
<g id="Node000002" class="node">
<title>Node2</title>
<g id="a_Node000002"><a xlink:href="SynthEngine_8cpp.html" target="_top" xlink:title=" ">
<polygon fill="white" stroke="#666666" points="159,-24.5 0,-24.5 0,-5.5 159,-5.5 159,-24.5"/>
<text text-anchor="middle" x="79.5" y="-12.5" font-family="Helvetica,sans-Serif" font-size="10.00">Source/Core/SynthEngine.cpp</text>
</a>
</g>
</g>
<!-- Node1&#45;&gt;Node2 -->
<g id="edge1_Node000001_Node000002" class="edge">
<title>Node1&#45;&gt;Node2</title>
<g id="a_edge1_Node000001_Node000002"><a xlink:title=" ">
<path fill="none" stroke="#63b8ff" d="M457.09,-65.8C382.28,-57.4 267.14,-43.93 167.5,-30 155.7,-28.35 143.04,-26.43 131.1,-24.54"/>
<polygon fill="#63b8ff" stroke="#63b8ff" points="457.04,-69.32 467.37,-66.95 457.82,-62.36 457.04,-69.32"/>
</a>
</g>
</g>
<!-- Node3 -->
<g id="Node000003" class="node">
<title>Node3</title>
<g id="a_Node000003"><a xlink:href="BridgeActions_8cpp.html" target="_top" xlink:title=" ">
<polygon fill="white" stroke="#666666" points="350,-24.5 177,-24.5 177,-5.5 350,-5.5 350,-24.5"/>
<text text-anchor="middle" x="263.5" y="-12.5" font-family="Helvetica,sans-Serif" font-size="10.00">Source/Plugin/BridgeActions.cpp</text>
</a>
</g>
</g>
<!-- Node1&#45;&gt;Node3 -->
<g id="edge2_Node000001_Node000003" class="edge">
<title>Node1&#45;&gt;Node3</title>
<g id="a_edge2_Node000001_Node000003"><a xlink:title=" ">
<path fill="none" stroke="#63b8ff" d="M487,-63.89C434.28,-52.6 351.89,-34.94 303.24,-24.52"/>
<polygon fill="#63b8ff" stroke="#63b8ff" points="486.29,-67.32 496.8,-65.99 487.76,-60.48 486.29,-67.32"/>
</a>
</g>
</g>
<!-- Node4 -->
<g id="Node000004" class="node">
<title>Node4</title>
<g id="a_Node000004"><a xlink:href="PluginEditor_8cpp.html" target="_top" xlink:title=" ">
<polygon fill="white" stroke="#666666" points="532.5,-24.5 368.5,-24.5 368.5,-5.5 532.5,-5.5 532.5,-24.5"/>
<text text-anchor="middle" x="450.5" y="-12.5" font-family="Helvetica,sans-Serif" font-size="10.00">Source/Plugin/PluginEditor.cpp</text>
</a>
</g>
</g>
<!-- Node1&#45;&gt;Node4 -->
<g id="edge3_Node000001_Node000004" class="edge">
<title>Node1&#45;&gt;Node4</title>
<g id="a_edge3_Node000001_Node000004"><a xlink:title=" ">
<path fill="none" stroke="#63b8ff" d="M515.42,-60.16C499.08,-49.05 476.98,-34.01 463.24,-24.67"/>
<polygon fill="#63b8ff" stroke="#63b8ff" points="513.57,-63.14 523.81,-65.87 517.51,-57.35 513.57,-63.14"/>
</a>
</g>
</g>
<!-- Node5 -->
<g id="Node000005" class="node">
<title>Node5</title>
<g id="a_Node000005"><a xlink:href="PluginEditor__ResourceProvider_8cpp.html" target="_top" xlink:title=" ">
<polygon fill="white" stroke="#666666" points="694.5,-30 550.5,-30 550.5,0 694.5,0 694.5,-30"/>
<text text-anchor="start" x="558.5" y="-18" font-family="Helvetica,sans-Serif" font-size="10.00">Source/Plugin/PluginEditor</text>
<text text-anchor="middle" x="622.5" y="-7" font-family="Helvetica,sans-Serif" font-size="10.00">_ResourceProvider.cpp</text>
</a>
</g>
</g>
<!-- Node1&#45;&gt;Node5 -->
<g id="edge4_Node000001_Node000005" class="edge">
<title>Node1&#45;&gt;Node5</title>
<g id="a_edge4_Node000001_Node000005"><a xlink:title=" ">
<path fill="none" stroke="#63b8ff" d="M557.77,-60.03C571.19,-50.9 588.43,-39.17 601.75,-30.11"/>
<polygon fill="#63b8ff" stroke="#63b8ff" points="555.49,-57.35 549.19,-65.87 559.43,-63.14 555.49,-57.35"/>
</a>
</g>
</g>
<!-- Node6 -->
<g id="Node000006" class="node">
<title>Node6</title>
<g id="a_Node000006"><a xlink:href="PluginProcessor_8cpp.html" target="_top" xlink:title=" ">
<polygon fill="white" stroke="#666666" points="894.5,-24.5 712.5,-24.5 712.5,-5.5 894.5,-5.5 894.5,-24.5"/>
<text text-anchor="middle" x="803.5" y="-12.5" font-family="Helvetica,sans-Serif" font-size="10.00">Source/Plugin/PluginProcessor.cpp</text>
</a>
</g>
</g>
<!-- Node1&#45;&gt;Node6 -->
<g id="edge5_Node000001_Node000006" class="edge">
<title>Node1&#45;&gt;Node6</title>
<g id="a_edge5_Node000001_Node000006"><a xlink:title=" ">
<path fill="none" stroke="#63b8ff" d="M585.24,-63.82C636.8,-52.52 717.15,-34.92 764.63,-24.52"/>
<polygon fill="#63b8ff" stroke="#63b8ff" points="584.34,-60.43 575.32,-65.99 585.84,-67.27 584.34,-60.43"/>
</a>
</g>
</g>
<!-- Node7 -->
<g id="Node000007" class="node">
<title>Node7</title>
<g id="a_Node000007"><a xlink:href="StandaloneApp_8cpp.html" target="_top" xlink:title=" ">
<polygon fill="white" stroke="#666666" points="1078,-30 913,-30 913,0 1078,0 1078,-30"/>
<text text-anchor="start" x="921" y="-18" font-family="Helvetica,sans-Serif" font-size="10.00">Source/Standalone/Standalone</text>
<text text-anchor="middle" x="995.5" y="-7" font-family="Helvetica,sans-Serif" font-size="10.00">App.cpp</text>
</a>
</g>
</g>
<!-- Node1&#45;&gt;Node7 -->
<g id="edge6_Node000001_Node000007" class="edge">
<title>Node1&#45;&gt;Node7</title>
<g id="a_edge6_Node000001_Node000007"><a xlink:title=" ">
<path fill="none" stroke="#63b8ff" d="M615.8,-65.59C690.19,-57.06 804.5,-43.53 903.5,-30 906.54,-29.58 909.64,-29.15 912.77,-28.71"/>
<polygon fill="#63b8ff" stroke="#63b8ff" points="615.11,-62.14 605.57,-66.76 615.91,-69.1 615.11,-62.14"/>
</a>
</g>
</g>
</g>
</svg>
