<?xml version="1.0" encoding="UTF-8" standalone="no"?>
<!DOCTYPE svg PUBLIC "-//W3C//DTD SVG 1.1//EN"
 "http://www.w3.org/Graphics/SVG/1.1/DTD/svg11.dtd">
<!-- Generated by graphviz version 2.43.0 (0)
 -->
<!-- Title: ABDMS2000::Tests::FakeBridgeHost Pages: 1 -->
<!--zoomable 554 -->

<svg id="main" version="1.1" xmlns="http://www.w3.org/2000/svg" xmlns:xlink="http://www.w3.org/1999/xlink" xml:space="preserve" onload="init(evt)">
<style type="text/css"><![CDATA[
.node, .edge {opacity: 0.7;}
.node.selected, .edge.selected {opacity: 1;}
.edge:hover path { stroke: red; }
.edge:hover polygon { stroke: red; fill: red; }
]]></style>

<defs>
  <circle id="rim" cx="0" cy="0" r="7"/>
  <circle id="rim2" cx="0" cy="0" r="3.5"/>
  <g id="zoomPlus">
    <use xlink:href="#rim" fill="#404040"><set attributeName="fill" to="#808080" begin="zoomplus.mouseover" end="zoomplus.mouseout"/></use>
    <path d="M-4,0h8M0,-4v8" fill="none" stroke="white" stroke-width="1.5" pointer-events="none"/>
  </g>
  <g id="zoomMin">
    <use xlink:href="#rim" fill="#404040"><set attributeName="fill" to="#808080" begin="zoomminus.mouseover" end="zoomminus.mouseout"/></use>
    <path d="M-4,0h8" fill="none" stroke="white" stroke-width="1.5" pointer-events="none"/>
  </g>
  <g id="arrowUp" transform="translate(30 24)">
    <use xlink:href="#rim"/>
    <path pointer-events="none" fill="none" stroke="white" stroke-width="1.5" d="M0,-3.0v7 M-2.5,-0.5L0,-3.0L2.5,-0.5"/>
  </g>
  <g id="arrowRight" transform="rotate(90) translate(36 -43)">
    <use xlink:href="#rim"/>
    <path pointer-events="none" fill="none" stroke="white" stroke-width="1.5" d="M0,-3.0v7 M-2.5,-0.5L0,-3.0L2.5,-0.5"/>
  </g>
  <g id="arrowDown" transform="rotate(180) translate(-30 -48)">
    <use xlink:href="#rim"/>
    <path pointer-events="none" fill="none" stroke="white" stroke-width="1.5" d="M0,-3.0v7 M-2.5,-0.5L0,-3.0L2.5,-0.5"/>
  </g>
  <g id="arrowLeft" transform="rotate(270) translate(-36 17)">
    <use xlink:href="#rim"/>
    <path pointer-events="none" fill="none" stroke="white" stroke-width="1.5" d="M0,-3.0v7 M-2.5,-0.5L0,-3.0L2.5,-0.5"/>
  </g>
  <g id="resetDef">
    <use xlink:href="#rim2" fill="#404040"><set attributeName="fill" to="#808080" begin="reset.mouseover" end="reset.mouseout"/></use>
  </g>
</defs>
<script type="application/ecmascript">
var viewWidth = 1346;
var viewHeight = 554;
var sectionId = 'dynsection-1';
</script>
<script type="application/ecmascript" xlink:href="svg.min.js"/>
<svg id="graph" class="graph">
<g id="viewport">
<title>ABDMS2000::Tests::FakeBridgeHost</title>
<!-- Node1 -->
<g id="Node000001" class="node">
<title>Node1</title>
<g id="a_Node000001"><a xlink:title=" ">
<polygon fill="#999999" stroke="#666666" points="1338,-223.5 1149,-223.5 1149,-204.5 1338,-204.5 1338,-223.5"/>
<text text-anchor="middle" x="1243.5" y="-211.5" font-family="Helvetica,sans-Serif" font-size="10.00">ABDMS2000::Tests::FakeBridgeHost</text>
</a>
</g>
</g>
<!-- Node2 -->
<g id="Node000002" class="node">
<title>Node2</title>
<g id="a_Node000002"><a xlink:href="classABDMS2000_1_1BridgeHost.html" target="_top" xlink:title=" ">
<polygon fill="white" stroke="#666666" points="1013.5,-368.5 876.5,-368.5 876.5,-349.5 1013.5,-349.5 1013.5,-368.5"/>
<text text-anchor="middle" x="945" y="-356.5" font-family="Helvetica,sans-Serif" font-size="10.00">ABDMS2000::BridgeHost</text>
</a>
</g>
</g>
<!-- Node2&#45;&gt;Node1 -->
<g id="edge1_Node000001_Node000002" class="edge">
<title>Node2&#45;&gt;Node1</title>
<g id="a_edge1_Node000001_Node000002"><a xlink:title=" ">
<path fill="none" stroke="#63b8ff" d="M1015.76,-347.29C1025,-345.17 1034.29,-342.75 1043,-340 1083.8,-327.14 1094.3,-322.99 1131,-301 1171.02,-277.02 1213.05,-240.71 1232.07,-223.58"/>
<polygon fill="#63b8ff" stroke="#63b8ff" points="1014.8,-343.92 1005.78,-349.47 1016.29,-350.76 1014.8,-343.92"/>
</a>
</g>
</g>
<!-- Node3 -->
<g id="Node000003" class="node">
<title>Node3</title>
<g id="a_Node000003"><a xlink:href="classABDMS2000_1_1Tests_1_1BridgeTestProcessor.html" target="_top" xlink:title=" ">
<polygon fill="white" stroke="#666666" points="1017.5,-331 872.5,-331 872.5,-301 1017.5,-301 1017.5,-331"/>
<text text-anchor="start" x="880.5" y="-319" font-family="Helvetica,sans-Serif" font-size="10.00">ABDMS2000::Tests::Bridge</text>
<text text-anchor="middle" x="945" y="-308" font-family="Helvetica,sans-Serif" font-size="10.00">TestProcessor</text>
</a>
</g>
</g>
<!-- Node3&#45;&gt;Node1 -->
<g id="edge2_Node000001_Node000003" class="edge">
<title>Node3&#45;&gt;Node1</title>
<g id="a_edge2_Node000001_Node000003"><a xlink:title=" ">
<path fill="none" stroke="#9a32cd" stroke-dasharray="5,2" d="M1019.77,-298.37C1027.64,-296.3 1035.5,-294.16 1043,-292 1082.57,-280.6 1092.55,-277.75 1131,-263 1163.38,-250.58 1200.03,-233.97 1222.19,-223.63"/>
<polygon fill="#9a32cd" stroke="#9a32cd" points="1018.65,-295.04 1009.84,-300.94 1020.4,-301.82 1018.65,-295.04"/>
</a>
</g>
<text text-anchor="middle" x="1096" y="-289" font-family="Helvetica,sans-Serif" font-size="10.00" fill="grey"> processor</text>
</g>
<!-- Node4 -->
<g id="Node000004" class="node">
<title>Node4</title>
<g id="a_Node000004"><a xlink:title=" ">
<polygon fill="white" stroke="#666666" points="689.5,-545.5 571.5,-545.5 571.5,-526.5 689.5,-526.5 689.5,-545.5"/>
<text text-anchor="middle" x="630.5" y="-533.5" font-family="Helvetica,sans-Serif" font-size="10.00">juce::AudioProcessor</text>
</a>
</g>
</g>
<!-- Node4&#45;&gt;Node3 -->
<g id="edge3_Node000003_Node000004" class="edge">
<title>Node4&#45;&gt;Node3</title>
<g id="a_edge3_Node000003_Node000004"><a xlink:title=" ">
<path fill="none" stroke="#63b8ff" d="M700.03,-542.51C743.21,-542.58 796.72,-534.54 829,-500 877.56,-448.04 800.34,-394.67 847,-341 853.73,-333.26 862.51,-327.75 872.04,-323.87"/>
<polygon fill="#63b8ff" stroke="#63b8ff" points="699.91,-539.01 689.85,-542.35 699.8,-546.01 699.91,-539.01"/>
</a>
</g>
</g>
<!-- Node5 -->
<g id="Node000005" class="node">
<title>Node5</title>
<g id="a_Node000005"><a xlink:href="classABDMS2000_1_1SynthEngine.html" target="_top" xlink:title=" ">
<polygon fill="white" stroke="#666666" points="1016.5,-282.5 873.5,-282.5 873.5,-263.5 1016.5,-263.5 1016.5,-282.5"/>
<text text-anchor="middle" x="945" y="-270.5" font-family="Helvetica,sans-Serif" font-size="10.00">ABDMS2000::SynthEngine</text>
</a>
</g>
</g>
<!-- Node5&#45;&gt;Node1 -->
<g id="edge4_Node000001_Node000005" class="edge">
<title>Node5&#45;&gt;Node1</title>
<g id="a_edge4_Node000001_Node000005"><a xlink:title=" ">
<path fill="none" stroke="#9a32cd" stroke-dasharray="5,2" d="M1004.02,-261.45C1059.65,-250.38 1142.63,-233.87 1194.6,-223.53"/>
<polygon fill="#9a32cd" stroke="#9a32cd" points="1003.09,-258.07 993.97,-263.46 1004.46,-264.94 1003.09,-258.07"/>
</a>
</g>
<text text-anchor="middle" x="1096" y="-251" font-family="Helvetica,sans-Serif" font-size="10.00" fill="grey"> engine</text>
</g>
<!-- Node6 -->
<g id="Node000006" class="node">
<title>Node6</title>
<g id="a_Node000006"><a xlink:href="structABDMS2000_1_1VoiceParameters.html" target="_top" xlink:title=" ">
<polygon fill="white" stroke="#666666" points="412.5,-482.5 248.5,-482.5 248.5,-463.5 412.5,-463.5 412.5,-482.5"/>
<text text-anchor="middle" x="330.5" y="-470.5" font-family="Helvetica,sans-Serif" font-size="10.00">ABDMS2000::VoiceParameters</text>
</a>
</g>
</g>
<!-- Node6&#45;&gt;Node5 -->
<g id="edge5_Node000005_Node000006" class="edge">
<title>Node6&#45;&gt;Node5</title>
<g id="a_edge5_Node000005_Node000006"><a xlink:title=" ">
<path fill="none" stroke="#9a32cd" stroke-dasharray="5,2" d="M423.01,-477.97C558.58,-484.38 799.98,-491.78 829,-465 857.41,-438.79 820.92,-320.53 847,-292 854.06,-284.27 863.27,-279.15 873.19,-275.83"/>
<polygon fill="#9a32cd" stroke="#9a32cd" points="422.8,-474.46 412.64,-477.47 422.46,-481.45 422.8,-474.46"/>
</a>
</g>
<text text-anchor="middle" x="630.5" y="-498" font-family="Helvetica,sans-Serif" font-size="10.00" fill="grey"> voiceParamsA_</text>
<text text-anchor="middle" x="630.5" y="-487" font-family="Helvetica,sans-Serif" font-size="10.00" fill="grey">voiceParamsB_</text>
</g>
<!-- Node11 -->
<g id="Node000011" class="node">
<title>Node11</title>
<g id="a_Node000011"><a xlink:href="classABDMS2000_1_1VoiceManager.html" target="_top" xlink:title="High&#45;performance Voice Manager matching Korg MS2000 / microKORG hardware specs.">
<polygon fill="white" stroke="#666666" points="706.5,-449.5 554.5,-449.5 554.5,-430.5 706.5,-430.5 706.5,-449.5"/>
<text text-anchor="middle" x="630.5" y="-437.5" font-family="Helvetica,sans-Serif" font-size="10.00">ABDMS2000::VoiceManager</text>
</a>
</g>
</g>
<!-- Node6&#45;&gt;Node11 -->
<g id="edge11_Node000011_Node000006" class="edge">
<title>Node6&#45;&gt;Node11</title>
<g id="a_edge11_Node000011_Node000006"><a xlink:title=" ">
<path fill="none" stroke="#9a32cd" stroke-dasharray="5,2" d="M421.22,-462.34C425.2,-461.88 429.14,-461.43 433,-461 473.06,-456.49 517.74,-451.7 554.36,-447.83"/>
<polygon fill="#9a32cd" stroke="#9a32cd" points="420.81,-458.86 411.28,-463.48 421.61,-465.82 420.81,-458.86"/>
</a>
</g>
<text text-anchor="middle" x="480.5" y="-464" font-family="Helvetica,sans-Serif" font-size="10.00" fill="grey"> baseBlockParams_</text>
</g>
<!-- Node7 -->
<g id="Node000007" class="node">
<title>Node7</title>
<g id="a_Node000007"><a xlink:title=" ">
<polygon fill="white" stroke="#666666" points="120.5,-537.5 34.5,-537.5 34.5,-518.5 120.5,-518.5 120.5,-537.5"/>
<text text-anchor="middle" x="77.5" y="-525.5" font-family="Helvetica,sans-Serif" font-size="10.00">LFOWaveform</text>
</a>
</g>
</g>
<!-- Node7&#45;&gt;Node6 -->
<g id="edge6_Node000006_Node000007" class="edge">
<title>Node7&#45;&gt;Node6</title>
<g id="a_edge6_Node000006_Node000007"><a xlink:title=" ">
<path fill="none" stroke="#9a32cd" stroke-dasharray="5,2" d="M130.39,-518.72C159.22,-513.36 195.7,-506.26 228,-499 250.18,-494.01 274.9,-487.7 294.39,-482.54"/>
<polygon fill="#9a32cd" stroke="#9a32cd" points="129.72,-515.28 120.53,-520.53 130.99,-522.16 129.72,-515.28"/>
</a>
</g>
<text text-anchor="middle" x="200.5" y="-513" font-family="Helvetica,sans-Serif" font-size="10.00" fill="grey"> lfo1Wave</text>
</g>
<!-- Node8 -->
<g id="Node000008" class="node">
<title>Node8</title>
<g id="a_Node000008"><a xlink:title=" ">
<polygon fill="white" stroke="#666666" points="132.5,-500.5 22.5,-500.5 22.5,-481.5 132.5,-481.5 132.5,-500.5"/>
<text text-anchor="middle" x="77.5" y="-488.5" font-family="Helvetica,sans-Serif" font-size="10.00">LFOWaveformLFO2</text>
</a>
</g>
</g>
<!-- Node8&#45;&gt;Node6 -->
<g id="edge7_Node000006_Node000008" class="edge">
<title>Node8&#45;&gt;Node6</title>
<g id="a_edge7_Node000006_Node000008"><a xlink:title=" ">
<path fill="none" stroke="#9a32cd" stroke-dasharray="5,2" d="M142.81,-486.39C174.92,-484.09 214.09,-481.28 248.25,-478.83"/>
<polygon fill="#9a32cd" stroke="#9a32cd" points="142.38,-482.91 132.65,-487.12 142.88,-489.89 142.38,-482.91"/>
</a>
</g>
<text text-anchor="middle" x="200.5" y="-487" font-family="Helvetica,sans-Serif" font-size="10.00" fill="grey"> lfo2Wave</text>
</g>
<!-- Node9 -->
<g id="Node000009" class="node">
<title>Node9</title>
<g id="a_Node000009"><a xlink:href="structABDMS2000_1_1SeqModulation.html" target="_top" xlink:title=" ">
<polygon fill="white" stroke="#666666" points="155,-463.5 0,-463.5 0,-444.5 155,-444.5 155,-463.5"/>
<text text-anchor="middle" x="77.5" y="-451.5" font-family="Helvetica,sans-Serif" font-size="10.00">ABDMS2000::SeqModulation</text>
</a>
</g>
</g>
<!-- Node9&#45;&gt;Node6 -->
<g id="edge8_Node000006_Node000009" class="edge">
<title>Node9&#45;&gt;Node6</title>
<g id="a_edge8_Node000006_Node000009"><a xlink:title=" ">
<path fill="none" stroke="#9a32cd" stroke-dasharray="5,2" d="M165.3,-460.31C185.86,-461.83 207.71,-463.45 228,-465 234.61,-465.5 241.46,-466.03 248.34,-466.57"/>
<polygon fill="#9a32cd" stroke="#9a32cd" points="165.56,-456.82 155.33,-459.58 165.04,-463.8 165.56,-456.82"/>
</a>
</g>
<text text-anchor="middle" x="200.5" y="-468" font-family="Helvetica,sans-Serif" font-size="10.00" fill="grey"> seq</text>
</g>
<!-- Node10 -->
<g id="Node000010" class="node">
<title>Node10</title>
<g id="a_Node000010"><a xlink:href="structABDMS2000_1_1PatchSlot.html" target="_top" xlink:title=" ">
<polygon fill="white" stroke="#666666" points="141.5,-426.5 13.5,-426.5 13.5,-407.5 141.5,-407.5 141.5,-426.5"/>
<text text-anchor="middle" x="77.5" y="-414.5" font-family="Helvetica,sans-Serif" font-size="10.00">ABDMS2000::PatchSlot</text>
</a>
</g>
</g>
<!-- Node10&#45;&gt;Node6 -->
<g id="edge9_Node000006_Node000010" class="edge">
<title>Node10&#45;&gt;Node6</title>
<g id="a_edge9_Node000006_Node000010"><a xlink:title=" ">
<path fill="none" stroke="#9a32cd" stroke-dasharray="5,2" d="M145.6,-428.33C171.45,-433.02 201.2,-438.81 228,-445 251.51,-450.43 277.76,-457.71 297.68,-463.48"/>
<polygon fill="#9a32cd" stroke="#9a32cd" points="145.99,-424.84 135.53,-426.52 144.75,-431.73 145.99,-424.84"/>
</a>
</g>
<text text-anchor="middle" x="200.5" y="-448" font-family="Helvetica,sans-Serif" font-size="10.00" fill="grey"> patchSlots</text>
</g>
<!-- Node11&#45;&gt;Node5 -->
<g id="edge10_Node000005_Node000011" class="edge">
<title>Node11&#45;&gt;Node5</title>
<g id="a_edge10_Node000005_Node000011"><a xlink:title=" ">
<path fill="none" stroke="#9a32cd" stroke-dasharray="5,2" d="M716.54,-440.13C762.45,-438.31 812.95,-432.62 829,-417 869.22,-377.85 808.32,-332.68 847,-292 854.21,-284.41 863.5,-279.36 873.45,-276.07"/>
<polygon fill="#9a32cd" stroke="#9a32cd" points="716.39,-436.63 706.52,-440.47 716.63,-443.63 716.39,-436.63"/>
</a>
</g>
<text text-anchor="middle" x="781" y="-453" font-family="Helvetica,sans-Serif" font-size="10.00" fill="grey"> voiceManagerA_</text>
<text text-anchor="middle" x="781" y="-442" font-family="Helvetica,sans-Serif" font-size="10.00" fill="grey">voiceManagerB_</text>
</g>
<!-- Node12 -->
<g id="Node000012" class="node">
<title>Node12</title>
<g id="a_Node000012"><a xlink:href="classABDMS2000_1_1ModSequencer.html" target="_top" xlink:title="Mod sequencer de 6 pistas de 16 pasos.">
<polygon fill="white" stroke="#666666" points="708,-412.5 553,-412.5 553,-393.5 708,-393.5 708,-412.5"/>
<text text-anchor="middle" x="630.5" y="-400.5" font-family="Helvetica,sans-Serif" font-size="10.00">ABDMS2000::ModSequencer</text>
</a>
</g>
</g>
<!-- Node12&#45;&gt;Node5 -->
<g id="edge12_Node000005_Node000012" class="edge">
<title>Node12&#45;&gt;Node5</title>
<g id="a_edge12_Node000005_Node000012"><a xlink:title=" ">
<path fill="none" stroke="#9a32cd" stroke-dasharray="5,2" d="M718.21,-403.17C763.47,-401.39 812.73,-395.89 829,-381 858.77,-353.76 818.38,-320.45 847,-292 854.3,-284.74 863.51,-279.84 873.33,-276.59"/>
<polygon fill="#9a32cd" stroke="#9a32cd" points="717.91,-399.68 708.03,-403.52 718.14,-406.68 717.91,-399.68"/>
</a>
</g>
<text text-anchor="middle" x="781" y="-405" font-family="Helvetica,sans-Serif" font-size="10.00" fill="grey"> modSeq_</text>
</g>
<!-- Node13 -->
<g id="Node000013" class="node">
<title>Node13</title>
<g id="a_Node000013"><a xlink:href="classABDMS2000_1_1Arpeggiator.html" target="_top" xlink:title="Musical Arpeggiator with Tempo Sync, Octave Multi&#45;Range, and Swing.">
<polygon fill="white" stroke="#666666" points="700.5,-375.5 560.5,-375.5 560.5,-356.5 700.5,-356.5 700.5,-375.5"/>
<text text-anchor="middle" x="630.5" y="-363.5" font-family="Helvetica,sans-Serif" font-size="10.00">ABDMS2000::Arpeggiator</text>
</a>
</g>
</g>
<!-- Node13&#45;&gt;Node5 -->
<g id="edge13_Node000005_Node000013" class="edge">
<title>Node13&#45;&gt;Node5</title>
<g id="a_edge13_Node000005_Node000013"><a xlink:title=" ">
<path fill="none" stroke="#9a32cd" stroke-dasharray="5,2" d="M710.68,-369.7C749.89,-367.62 795.81,-358.83 829,-333 844.71,-320.78 831.47,-304.44 847,-292 854.63,-285.89 863.68,-281.55 873.13,-278.51"/>
<polygon fill="#9a32cd" stroke="#9a32cd" points="710.46,-366.21 700.6,-370.1 710.73,-373.2 710.46,-366.21"/>
</a>
</g>
<text text-anchor="middle" x="781" y="-370" font-family="Helvetica,sans-Serif" font-size="10.00" fill="grey"> arpeggiator_</text>
</g>
<!-- Node14 -->
<g id="Node000014" class="node">
<title>Node14</title>
<g id="a_Node000014"><a xlink:href="classABDMS2000_1_1ModFX.html" target="_top" xlink:title="Modulation FX Block for MS2000. Incorporates exact reverse&#45;engineered specs:">
<polygon fill="white" stroke="#666666" points="688.5,-338.5 572.5,-338.5 572.5,-319.5 688.5,-319.5 688.5,-338.5"/>
<text text-anchor="middle" x="630.5" y="-326.5" font-family="Helvetica,sans-Serif" font-size="10.00">ABDMS2000::ModFX</text>
</a>
</g>
</g>
<!-- Node14&#45;&gt;Node5 -->
<g id="edge14_Node000005_Node000014" class="edge">
<title>Node14&#45;&gt;Node5</title>
<g id="a_edge14_Node000005_Node000014"><a xlink:title=" ">
<path fill="none" stroke="#9a32cd" stroke-dasharray="5,2" d="M698.66,-323.72C737.33,-319.55 786.53,-312.31 829,-300 837.41,-297.56 838.65,-294.64 847,-292 858.86,-288.25 871.79,-285.11 884.22,-282.52"/>
<polygon fill="#9a32cd" stroke="#9a32cd" points="698.14,-320.25 688.56,-324.76 698.87,-327.22 698.14,-320.25"/>
</a>
</g>
<text text-anchor="middle" x="781" y="-321" font-family="Helvetica,sans-Serif" font-size="10.00" fill="grey"> modFX_</text>
</g>
<!-- Node15 -->
<g id="Node000015" class="node">
<title>Node15</title>
<g id="a_Node000015"><a xlink:href="classABDMS2000_1_1DelayFX.html" target="_top" xlink:title="MS2000 / Motorola DSP56362 Delay FX Block. Incorporates:">
<polygon fill="white" stroke="#666666" points="692.5,-301.5 568.5,-301.5 568.5,-282.5 692.5,-282.5 692.5,-301.5"/>
<text text-anchor="middle" x="630.5" y="-289.5" font-family="Helvetica,sans-Serif" font-size="10.00">ABDMS2000::DelayFX</text>
</a>
</g>
</g>
<!-- Node15&#45;&gt;Node5 -->
<g id="edge15_Node000005_Node000015" class="edge">
<title>Node15&#45;&gt;Node5</title>
<g id="a_edge15_Node000005_Node000015"><a xlink:title=" ">
<path fill="none" stroke="#9a32cd" stroke-dasharray="5,2" d="M702.85,-287.66C753.99,-284.55 822.55,-280.38 873.49,-277.29"/>
<polygon fill="#9a32cd" stroke="#9a32cd" points="702.64,-284.17 692.87,-288.27 703.06,-291.16 702.64,-284.17"/>
</a>
</g>
<text text-anchor="middle" x="781" y="-288" font-family="Helvetica,sans-Serif" font-size="10.00" fill="grey"> delayFX_</text>
</g>
<!-- Node16 -->
<g id="Node000016" class="node">
<title>Node16</title>
<g id="a_Node000016"><a xlink:href="classABDMS2000_1_1Equalizer.html" target="_top" xlink:title="2&#45;Band Cascaded Shelving Equalizer based on reverse&#45;engineered Korg MS2000 DSP specs....">
<polygon fill="white" stroke="#666666" points="694.5,-264.5 566.5,-264.5 566.5,-245.5 694.5,-245.5 694.5,-264.5"/>
<text text-anchor="middle" x="630.5" y="-252.5" font-family="Helvetica,sans-Serif" font-size="10.00">ABDMS2000::Equalizer</text>
</a>
</g>
</g>
<!-- Node16&#45;&gt;Node5 -->
<g id="edge16_Node000005_Node000016" class="edge">
<title>Node16&#45;&gt;Node5</title>
<g id="a_edge16_Node000005_Node000016"><a xlink:title=" ">
<path fill="none" stroke="#9a32cd" stroke-dasharray="5,2" d="M704.98,-254.73C742.18,-255.04 788.04,-256.1 829,-259 844.05,-260.07 860.15,-261.71 875.39,-263.5"/>
<polygon fill="#9a32cd" stroke="#9a32cd" points="704.75,-251.23 694.73,-254.66 704.7,-258.23 704.75,-251.23"/>
</a>
</g>
<text text-anchor="middle" x="781" y="-262" font-family="Helvetica,sans-Serif" font-size="10.00" fill="grey"> masterEQ_</text>
</g>
<!-- Node17 -->
<g id="Node000017" class="node">
<title>Node17</title>
<g id="a_Node000017"><a xlink:href="classABDMS2000_1_1Vocoder16Band.html" target="_top" xlink:title="16&#45;Band Korg MS2000 Vocoder Engine. Features 16 analysis/synthesis channels, Formant Shift (&#45;2....">
<polygon fill="white" stroke="#666666" points="709.5,-227.5 551.5,-227.5 551.5,-208.5 709.5,-208.5 709.5,-227.5"/>
<text text-anchor="middle" x="630.5" y="-215.5" font-family="Helvetica,sans-Serif" font-size="10.00">ABDMS2000::Vocoder16Band</text>
</a>
</g>
</g>
<!-- Node17&#45;&gt;Node5 -->
<g id="edge17_Node000005_Node000017" class="edge">
<title>Node17&#45;&gt;Node5</title>
<g id="a_edge17_Node000005_Node000017"><a xlink:title=" ">
<path fill="none" stroke="#9a32cd" stroke-dasharray="5,2" d="M719.81,-224.63C754.1,-228.04 793.57,-233 829,-240 858.95,-245.92 892.43,-255.92 915.5,-263.37"/>
<polygon fill="#9a32cd" stroke="#9a32cd" points="720.11,-221.14 709.82,-223.67 719.44,-228.11 720.11,-221.14"/>
</a>
</g>
<text text-anchor="middle" x="781" y="-243" font-family="Helvetica,sans-Serif" font-size="10.00" fill="grey"> vocoder_</text>
</g>
<!-- Node18 -->
<g id="Node000018" class="node">
<title>Node18</title>
<g id="a_Node000018"><a xlink:href="classABDMS2000_1_1EnvelopeFollower.html" target="_top" xlink:title="High&#45;precision Envelope Follower with configurable release time (Gate Sense).">
<polygon fill="white" stroke="#666666" points="415,-245.5 246,-245.5 246,-226.5 415,-226.5 415,-245.5"/>
<text text-anchor="middle" x="330.5" y="-233.5" font-family="Helvetica,sans-Serif" font-size="10.00">ABDMS2000::EnvelopeFollower</text>
</a>
</g>
</g>
<!-- Node18&#45;&gt;Node17 -->
<g id="edge18_Node000017_Node000018" class="edge">
<title>Node18&#45;&gt;Node17</title>
<g id="a_edge18_Node000017_Node000018"><a xlink:title=" ">
<path fill="none" stroke="#9a32cd" stroke-dasharray="5,2" d="M425.46,-230.32C466,-227.88 512.85,-225.05 551.44,-222.72"/>
<polygon fill="#9a32cd" stroke="#9a32cd" points="425.07,-226.84 415.3,-230.94 425.5,-233.83 425.07,-226.84"/>
</a>
</g>
<text text-anchor="middle" x="480.5" y="-232" font-family="Helvetica,sans-Serif" font-size="10.00" fill="grey"> sibilanceFollower_</text>
</g>
<!-- Node19 -->
<g id="Node000019" class="node">
<title>Node19</title>
<g id="a_Node000019"><a xlink:href="classABDMS2000_1_1NoiseGenerator.html" target="_top" xlink:title="Real&#45;Time Safe White and Pink Noise Generator (LCG algorithm).">
<polygon fill="white" stroke="#666666" points="410,-208.5 251,-208.5 251,-189.5 410,-189.5 410,-208.5"/>
<text text-anchor="middle" x="330.5" y="-196.5" font-family="Helvetica,sans-Serif" font-size="10.00">ABDMS2000::NoiseGenerator</text>
</a>
</g>
</g>
<!-- Node19&#45;&gt;Node17 -->
<g id="edge19_Node000017_Node000019" class="edge">
<title>Node19&#45;&gt;Node17</title>
<g id="a_edge19_Node000017_Node000019"><a xlink:title=" ">
<path fill="none" stroke="#9a32cd" stroke-dasharray="5,2" d="M420.7,-202.83C454.34,-204.46 492.95,-206.56 528,-209 535.59,-209.53 543.49,-210.13 551.39,-210.78"/>
<polygon fill="#9a32cd" stroke="#9a32cd" points="420.58,-199.32 410.42,-202.34 420.24,-206.31 420.58,-199.32"/>
</a>
</g>
<text text-anchor="middle" x="480.5" y="-212" font-family="Helvetica,sans-Serif" font-size="10.00" fill="grey"> whiteNoiseGen_</text>
</g>
<!-- Node20 -->
<g id="Node000020" class="node">
<title>Node20</title>
<g id="a_Node000020"><a xlink:href="classABDMS2000_1_1MultiModeFilter.html" target="_top" xlink:title="Zero&#45;Delay Feedback (ZDF/TPT) Multi&#45;Mode Resonant Filter. Accurately models the MS2000 / microKORG fi...">
<polygon fill="white" stroke="#666666" points="710,-190.5 551,-190.5 551,-171.5 710,-171.5 710,-190.5"/>
<text text-anchor="middle" x="630.5" y="-178.5" font-family="Helvetica,sans-Serif" font-size="10.00">ABDMS2000::MultiModeFilter</text>
</a>
</g>
</g>
<!-- Node20&#45;&gt;Node5 -->
<g id="edge20_Node000005_Node000020" class="edge">
<title>Node20&#45;&gt;Node5</title>
<g id="a_edge20_Node000005_Node000020"><a xlink:title=" ">
<path fill="none" stroke="#9a32cd" stroke-dasharray="5,2" d="M720.41,-187.93C754.94,-192.32 794.42,-199.44 829,-211 867.72,-223.94 908.85,-249.34 929.85,-263.27"/>
<polygon fill="#9a32cd" stroke="#9a32cd" points="720.69,-184.44 710.34,-186.71 719.85,-191.39 720.69,-184.44"/>
</a>
</g>
<text text-anchor="middle" x="781" y="-214" font-family="Helvetica,sans-Serif" font-size="10.00" fill="grey"> debugFilter_</text>
</g>
<!-- Node21 -->
<g id="Node000021" class="node">
<title>Node21</title>
<g id="a_Node000021"><a xlink:title=" ">
<polygon fill="white" stroke="#666666" points="692,-153.5 569,-153.5 569,-134.5 692,-134.5 692,-153.5"/>
<text text-anchor="middle" x="630.5" y="-141.5" font-family="Helvetica,sans-Serif" font-size="10.00">AudioThreadSnapshot</text>
</a>
</g>
</g>
<!-- Node21&#45;&gt;Node5 -->
<g id="edge21_Node000005_Node000021" class="edge">
<title>Node21&#45;&gt;Node5</title>
<g id="a_edge21_Node000005_Node000021"><a xlink:title=" ">
<path fill="none" stroke="#9a32cd" stroke-dasharray="5,2" d="M702.4,-141.66C742.21,-143.41 791.3,-150.95 829,-174 840.68,-181.14 837.45,-189.19 847,-199 872.85,-225.57 908.68,-250.39 928.77,-263.44"/>
<polygon fill="#9a32cd" stroke="#9a32cd" points="702.34,-138.15 692.23,-141.32 702.11,-145.15 702.34,-138.15"/>
</a>
</g>
<text text-anchor="middle" x="781" y="-177" font-family="Helvetica,sans-Serif" font-size="10.00" fill="grey"> currentSnapshot_</text>
</g>
<!-- Node22 -->
<g id="Node000022" class="node">
<title>Node22</title>
<g id="a_Node000022"><a xlink:href="classABDMS2000_1_1MIDITelemetryManager.html" target="_top" xlink:title="Bidirectional MIDI Telemetry Manager. Handles:">
<polygon fill="white" stroke="#666666" points="1022,-190 868,-190 868,-160 1022,-160 1022,-190"/>
<text text-anchor="start" x="876" y="-178" font-family="Helvetica,sans-Serif" font-size="10.00">ABDMS2000::MIDITelemetry</text>
<text text-anchor="middle" x="945" y="-167" font-family="Helvetica,sans-Serif" font-size="10.00">Manager</text>
</a>
</g>
</g>
<!-- Node22&#45;&gt;Node1 -->
<g id="edge22_Node000001_Node000022" class="edge">
<title>Node22&#45;&gt;Node1</title>
<g id="a_edge22_Node000001_Node000022"><a xlink:title=" ">
<path fill="none" stroke="#9a32cd" stroke-dasharray="5,2" d="M1032.41,-186.37C1076.16,-192.12 1128.66,-199.03 1170.23,-204.49"/>
<polygon fill="#9a32cd" stroke="#9a32cd" points="1032.73,-182.88 1022.36,-185.04 1031.81,-189.82 1032.73,-182.88"/>
</a>
</g>
<text text-anchor="middle" x="1096" y="-202" font-family="Helvetica,sans-Serif" font-size="10.00" fill="grey"> telemetry</text>
</g>
<!-- Node23 -->
<g id="Node000023" class="node">
<title>Node23</title>
<g id="a_Node000023"><a xlink:title=" ">
<polygon fill="white" stroke="#666666" points="703,-116 558,-116 558,-86 703,-86 703,-116"/>
<text text-anchor="start" x="566" y="-104" font-family="Helvetica,sans-Serif" font-size="10.00">juce::AudioProcessorValue</text>
<text text-anchor="middle" x="630.5" y="-93" font-family="Helvetica,sans-Serif" font-size="10.00">TreeState::Listener</text>
</a>
</g>
</g>
<!-- Node23&#45;&gt;Node22 -->
<g id="edge23_Node000022_Node000023" class="edge">
<title>Node23&#45;&gt;Node22</title>
<g id="a_edge23_Node000022_Node000023"><a xlink:title=" ">
<path fill="none" stroke="#63b8ff" d="M713.62,-93.89C751.33,-94.42 795.1,-100.72 829,-122 841.85,-130.07 834.73,-142.08 847,-151 853.31,-155.59 860.4,-159.31 867.8,-162.32"/>
<polygon fill="#63b8ff" stroke="#63b8ff" points="713.16,-90.39 703.15,-93.89 713.15,-97.39 713.16,-90.39"/>
</a>
</g>
</g>
<!-- Node24 -->
<g id="Node000024" class="node">
<title>Node24</title>
<g id="a_Node000024"><a xlink:title=" ">
<polygon fill="white" stroke="#666666" points="667.5,-67.5 593.5,-67.5 593.5,-48.5 667.5,-48.5 667.5,-67.5"/>
<text text-anchor="middle" x="630.5" y="-55.5" font-family="Helvetica,sans-Serif" font-size="10.00">NRPNParser</text>
</a>
</g>
</g>
<!-- Node24&#45;&gt;Node22 -->
<g id="edge24_Node000022_Node000024" class="edge">
<title>Node24&#45;&gt;Node22</title>
<g id="a_edge24_Node000022_Node000024"><a xlink:title=" ">
<path fill="none" stroke="#9a32cd" stroke-dasharray="5,2" d="M677.56,-49.53C721.77,-44.2 787.73,-44.05 829,-80 853.54,-101.39 823.92,-128.05 847,-151 852.91,-156.87 860.01,-161.38 867.65,-164.84"/>
<polygon fill="#9a32cd" stroke="#9a32cd" points="677.1,-46.06 667.65,-50.85 678.03,-52.99 677.1,-46.06"/>
</a>
</g>
<text text-anchor="middle" x="781" y="-83" font-family="Helvetica,sans-Serif" font-size="10.00" fill="grey"> nrpnParser_</text>
</g>
<!-- Node25 -->
<g id="Node000025" class="node">
<title>Node25</title>
<g id="a_Node000025"><a xlink:href="classABDMS2000_1_1SysExManager.html" target="_top" xlink:title=" ">
<polygon fill="white" stroke="#666666" points="1022.5,-141.5 867.5,-141.5 867.5,-122.5 1022.5,-122.5 1022.5,-141.5"/>
<text text-anchor="middle" x="945" y="-129.5" font-family="Helvetica,sans-Serif" font-size="10.00">ABDMS2000::SysExManager</text>
</a>
</g>
</g>
<!-- Node25&#45;&gt;Node1 -->
<g id="edge25_Node000001_Node000025" class="edge">
<title>Node25&#45;&gt;Node1</title>
<g id="a_edge25_Node000001_Node000025"><a xlink:title=" ">
<path fill="none" stroke="#9a32cd" stroke-dasharray="5,2" d="M1008.71,-143.49C1020.16,-145.81 1031.96,-148.36 1043,-151 1106.23,-166.15 1178.57,-190.91 1216.37,-204.44"/>
<polygon fill="#9a32cd" stroke="#9a32cd" points="1009.27,-140.03 998.78,-141.51 1007.9,-146.9 1009.27,-140.03"/>
</a>
</g>
<text text-anchor="middle" x="1096" y="-177" font-family="Helvetica,sans-Serif" font-size="10.00" fill="grey"> sysEx</text>
</g>
<!-- Node26 -->
<g id="Node000026" class="node">
<title>Node26</title>
<g id="a_Node000026"><a xlink:href="structABDMS2000_1_1MS2000HardwareProgram.html" target="_top" xlink:title="Programa de fábrica del Korg MS2000 / MS2000R / microKORG — 254 bytes reales.">
<polygon fill="white" stroke="#666666" points="715,-30 546,-30 546,0 715,0 715,-30"/>
<text text-anchor="start" x="554" y="-18" font-family="Helvetica,sans-Serif" font-size="10.00">ABDMS2000::MS2000Hardware</text>
<text text-anchor="middle" x="630.5" y="-7" font-family="Helvetica,sans-Serif" font-size="10.00">Program</text>
</a>
</g>
</g>
<!-- Node26&#45;&gt;Node25 -->
<g id="edge26_Node000025_Node000026" class="edge">
<title>Node26&#45;&gt;Node25</title>
<g id="a_edge26_Node000025_Node000026"><a xlink:title=" ">
<path fill="none" stroke="#9a32cd" stroke-dasharray="5,2" d="M725.35,-1.46C761.67,-1.42 801.12,-8.47 829,-33 856.69,-57.36 820.47,-88.39 847,-114 852.79,-119.59 859.73,-123.74 867.19,-126.78"/>
<polygon fill="#9a32cd" stroke="#9a32cd" points="725.14,2.03 715.21,-1.66 725.27,-4.97 725.14,2.03"/>
</a>
</g>
<text text-anchor="middle" x="781" y="-36" font-family="Helvetica,sans-Serif" font-size="10.00" fill="grey"> hardwareProgram_</text>
</g>
<!-- Node27 -->
<g id="Node000027" class="node">
<title>Node27</title>
<g id="a_Node000027"><a xlink:href="classABDMS2000_1_1HardwareMidiTransport.html" target="_top" xlink:title=" ">
<polygon fill="white" stroke="#666666" points="1043,-104.5 847,-104.5 847,-85.5 1043,-85.5 1043,-104.5"/>
<text text-anchor="middle" x="945" y="-92.5" font-family="Helvetica,sans-Serif" font-size="10.00">ABDMS2000::HardwareMidiTransport</text>
</a>
</g>
</g>
<!-- Node27&#45;&gt;Node1 -->
<g id="edge27_Node000001_Node000027" class="edge">
<title>Node27&#45;&gt;Node1</title>
<g id="a_edge27_Node000001_Node000027"><a xlink:title=" ">
<path fill="none" stroke="#9a32cd" stroke-dasharray="5,2" d="M1009.9,-106.53C1020.98,-108.81 1032.36,-111.33 1043,-114 1082.68,-123.95 1093.96,-123.62 1131,-141 1169.75,-159.18 1210.72,-189.21 1230.47,-204.46"/>
<polygon fill="#9a32cd" stroke="#9a32cd" points="1010.33,-103.05 999.84,-104.51 1008.95,-109.91 1010.33,-103.05"/>
</a>
</g>
<text text-anchor="middle" x="1096" y="-144" font-family="Helvetica,sans-Serif" font-size="10.00" fill="grey"> hardwareMidi</text>
</g>
</g>
</svg>

<g id="navigator" transform="translate(0 0)" fill="#404254">
  <rect fill="#f2f5e9" fill-opacity="0.5" stroke="#606060" stroke-width=".5" x="0" y="0" width="60" height="60"/>
  <use id="zoomplus" xlink:href="#zoomPlus" x="17" y="9" onmousedown="handleZoom(evt,'in')"/>
  <use id="zoomminus" xlink:href="#zoomMin" x="42" y="9" onmousedown="handleZoom(evt,'out')"/>
  <use id="reset" xlink:href="#resetDef" x="30" y="36" onmousedown="handleReset()"/>
   <use id="arrowup" xlink:href="#arrowUp" x="0" y="0" onmousedown="handlePan(0,-1)"/>
  <use id="arrowright" xlink:href="#arrowRight" x="0" y="0" onmousedown="handlePan(1,0)"/>
  <use id="arrowdown" xlink:href="#arrowDown" x="0" y="0" onmousedown="handlePan(0,1)"/>
  <use id="arrowleft" xlink:href="#arrowLeft" x="0" y="0" onmousedown="handlePan(-1,0)"/>
</g>
<svg viewBox="0 0 15 15" width="100%" height="30px" preserveAspectRatio="xMaxYMin meet">
 <g id="arrow_out" transform="scale(0.3 0.3)">
  <a xlink:href="classABDMS2000_1_1Tests_1_1FakeBridgeHost__coll__graph_org.svg" target="_base">
   <rect id="button" ry="5" rx="5" y="6" x="6" height="38" width="38"
        fill="#f2f5e9" fill-opacity="0.5" stroke="#606060" stroke-width="1.0"/>
   <path id="arrow"
     d="M 11.500037,31.436501 C 11.940474,20.09759 22.043105,11.32322 32.158766,21.979434 L 37.068811,17.246167 C 37.068811,17.246167 37.088388,32 37.088388,32 L 22.160133,31.978069 C 22.160133,31.978069 26.997745,27.140456 26.997745,27.140456 C 18.528582,18.264221 13.291696,25.230495 11.500037,31.436501 z"
     style="fill:#404040;"/>
  </a>
 </g>
</svg>

<style type='text/css'>
<![CDATA[
[data-mouse-over-selected='false'] { opacity: 0.7; }
[data-mouse-over-selected='true']  { opacity: 1.0; }
]]>
</style>
<script type="application/ecmascript"><![CDATA[
document.addEventListener('DOMContentLoaded', (event) => {
  highlightEdges();
  highlightAdjacentNodes();
});
]]></script>
</svg>
