<?xml version="1.0" encoding="UTF-8" standalone="no"?>
<!DOCTYPE svg PUBLIC "-//W3C//DTD SVG 1.1//EN"
 "http://www.w3.org/Graphics/SVG/1.1/DTD/svg11.dtd">
<!-- Generated by graphviz version 2.43.0 (0)
 -->
<!-- Title: ABDMS2000::ABDMS2000AudioProcessorEditor Pages: 1 -->
<svg width="244pt" height="93pt"
 viewBox="0.00 0.00 243.50 93.00" xmlns="http://www.w3.org/2000/svg" xmlns:xlink="http://www.w3.org/1999/xlink">
<g id="graph0" class="graph" transform="scale(1 1) rotate(0) translate(4 89)">
<title>ABDMS2000::ABDMS2000AudioProcessorEditor</title>
<!-- Node1 -->
<g id="Node000001" class="node">
<title>Node1</title>
<g id="a_Node000001"><a xlink:title=" ">
<polygon fill="#999999" stroke="#666666" points="221,-30 51,-30 51,0 221,0 221,-30"/>
<text text-anchor="start" x="59" y="-18" font-family="Helvetica,sans-Serif" font-size="10.00">ABDMS2000::ABDMS2000Audio</text>
<text text-anchor="middle" x="136" y="-7" font-family="Helvetica,sans-Serif" font-size="10.00">ProcessorEditor</text>
</a>
</g>
</g>
<!-- Node2 -->
<g id="Node000002" class="node">
<title>Node2</title>
<g id="a_Node000002"><a xlink:title=" ">
<polygon fill="white" stroke="#666666" points="146,-85 0,-85 0,-66 146,-66 146,-85"/>
<text text-anchor="middle" x="73" y="-73" font-family="Helvetica,sans-Serif" font-size="10.00">juce::AudioProcessorEditor</text>
</a>
</g>
</g>
<!-- Node2&#45;&gt;Node1 -->
<g id="edge1_Node000001_Node000002" class="edge">
<title>Node2&#45;&gt;Node1</title>
<g id="a_edge1_Node000001_Node000002"><a xlink:title=" ">
<path fill="none" stroke="#63b8ff" d="M89.73,-58.97C99.38,-50.01 111.42,-38.82 120.8,-30.11"/>
<polygon fill="#63b8ff" stroke="#63b8ff" points="87.24,-56.5 82.3,-65.87 92.01,-61.63 87.24,-56.5"/>
</a>
</g>
</g>
<!-- Node3 -->
<g id="Node000003" class="node">
<title>Node3</title>
<g id="a_Node000003"><a xlink:title=" ">
<polygon fill="white" stroke="#666666" points="235.5,-85 164.5,-85 164.5,-66 235.5,-66 235.5,-85"/>
<text text-anchor="middle" x="200" y="-73" font-family="Helvetica,sans-Serif" font-size="10.00">juce::Timer</text>
</a>
</g>
</g>
<!-- Node3&#45;&gt;Node1 -->
<g id="edge2_Node000001_Node000003" class="edge">
<title>Node3&#45;&gt;Node1</title>
<g id="a_edge2_Node000001_Node000003"><a xlink:title=" ">
<path fill="none" stroke="#63b8ff" d="M183.01,-58.97C173.2,-50.01 160.97,-38.82 151.44,-30.11"/>
<polygon fill="#63b8ff" stroke="#63b8ff" points="180.81,-61.7 190.56,-65.87 185.54,-56.54 180.81,-61.7"/>
</a>
</g>
</g>
</g>
</svg>
