<?xml version="1.0" encoding="UTF-8" standalone="no"?>
<!DOCTYPE svg PUBLIC "-//W3C//DTD SVG 1.1//EN"
 "http://www.w3.org/Graphics/SVG/1.1/DTD/svg11.dtd">
<!-- Generated by graphviz version 2.43.0 (0)
 -->
<!-- Title: Source/DSP/Common/DSPUtils.h Pages: 1 -->
<!--zoomable 566 -->

<svg id="main" version="1.1" xmlns="http://www.w3.org/2000/svg" xmlns:xlink="http://www.w3.org/1999/xlink" xml:space="preserve" onload="init(evt)">
<style type="text/css"><![CDATA[
.node, .edge {opacity: 0.7;}
.node.selected, .edge.selected {opacity: 1;}
.edge:hover path { stroke: red; }
.edge:hover polygon { stroke: red; fill: red; }
]]></style>

<defs>
  <circle id="rim" cx="0" cy="0" r="7"/>
  <circle id="rim2" cx="0" cy="0" r="3.5"/>
  <g id="zoomPlus">
    <use xlink:href="#rim" fill="#404040"><set attributeName="fill" to="#808080" begin="zoomplus.mouseover" end="zoomplus.mouseout"/></use>
    <path d="M-4,0h8M0,-4v8" fill="none" stroke="white" stroke-width="1.5" pointer-events="none"/>
  </g>
  <g id="zoomMin">
    <use xlink:href="#rim" fill="#404040"><set attributeName="fill" to="#808080" begin="zoomminus.mouseover" end="zoomminus.mouseout"/></use>
    <path d="M-4,0h8" fill="none" stroke="white" stroke-width="1.5" pointer-events="none"/>
  </g>
  <g id="arrowUp" transform="translate(30 24)">
    <use xlink:href="#rim"/>
    <path pointer-events="none" fill="none" stroke="white" stroke-width="1.5" d="M0,-3.0v7 M-2.5,-0.5L0,-3.0L2.5,-0.5"/>
  </g>
  <g id="arrowRight" transform="rotate(90) translate(36 -43)">
    <use xlink:href="#rim"/>
    <path pointer-events="none" fill="none" stroke="white" stroke-width="1.5" d="M0,-3.0v7 M-2.5,-0.5L0,-3.0L2.5,-0.5"/>
  </g>
  <g id="arrowDown" transform="rotate(180) translate(-30 -48)">
    <use xlink:href="#rim"/>
    <path pointer-events="none" fill="none" stroke="white" stroke-width="1.5" d="M0,-3.0v7 M-2.5,-0.5L0,-3.0L2.5,-0.5"/>
  </g>
  <g id="arrowLeft" transform="rotate(270) translate(-36 17)">
    <use xlink:href="#rim"/>
    <path pointer-events="none" fill="none" stroke="white" stroke-width="1.5" d="M0,-3.0v7 M-2.5,-0.5L0,-3.0L2.5,-0.5"/>
  </g>
  <g id="resetDef">
    <use xlink:href="#rim2" fill="#404040"><set attributeName="fill" to="#808080" begin="reset.mouseover" end="reset.mouseout"/></use>
  </g>
</defs>
<script type="application/ecmascript">
var viewWidth = 1962;
var viewHeight = 566;
var sectionId = 'dynsection-1';
</script>
<script type="application/ecmascript" xlink:href="svg.min.js"/>
<svg id="graph" class="graph">
<g id="viewport">
<title>Source/DSP/Common/DSPUtils.h</title>
<!-- Node1 -->
<g id="Node000001" class="node">
<title>Node1</title>
<g id="a_Node000001"><a xlink:title=" ">
<polygon fill="#999999" stroke="#666666" points="1046,-558 873,-558 873,-539 1046,-539 1046,-558"/>
<text text-anchor="middle" x="959.5" y="-546" font-family="Helvetica,sans-Serif" font-size="10.00">Source/DSP/Common/DSPUtils.h</text>
</a>
</g>
</g>
<!-- Node2 -->
<g id="Node000002" class="node">
<title>Node2</title>
<g id="a_Node000002"><a xlink:href="DelayFX_8cpp.html" target="_top" xlink:title=" ">
<polygon fill="white" stroke="#666666" points="203.5,-437 95.5,-437 95.5,-407 203.5,-407 203.5,-437"/>
<text text-anchor="start" x="103.5" y="-425" font-family="Helvetica,sans-Serif" font-size="10.00">Source/DSP/Effects</text>
<text text-anchor="middle" x="149.5" y="-414" font-family="Helvetica,sans-Serif" font-size="10.00">/DelayFX.cpp</text>
</a>
</g>
</g>
<!-- Node1&#45;&gt;Node2 -->
<g id="edge1_Node000001_Node000002" class="edge">
<title>Node1&#45;&gt;Node2</title>
<g id="a_edge1_Node000001_Node000002"><a xlink:title=" ">
<path fill="none" stroke="#63b8ff" d="M862.7,-545.24C656.47,-540 190.34,-525.69 164.5,-503 145.92,-486.68 145.73,-455.29 147.47,-437.06"/>
<polygon fill="#63b8ff" stroke="#63b8ff" points="862.84,-548.74 872.92,-545.5 863.01,-541.75 862.84,-548.74"/>
</a>
</g>
</g>
<!-- Node3 -->
<g id="Node000003" class="node">
<title>Node3</title>
<g id="a_Node000003"><a xlink:href="DelayFX_8h.html" target="_top" xlink:title=" ">
<polygon fill="white" stroke="#666666" points="281.5,-503 173.5,-503 173.5,-473 281.5,-473 281.5,-503"/>
<text text-anchor="start" x="181.5" y="-491" font-family="Helvetica,sans-Serif" font-size="10.00">Source/DSP/Effects</text>
<text text-anchor="middle" x="227.5" y="-480" font-family="Helvetica,sans-Serif" font-size="10.00">/DelayFX.h</text>
</a>
</g>
</g>
<!-- Node1&#45;&gt;Node3 -->
<g id="edge2_Node000001_Node000003" class="edge">
<title>Node1&#45;&gt;Node3</title>
<g id="a_edge2_Node000001_Node000003"><a xlink:title=" ">
<path fill="none" stroke="#63b8ff" d="M862.63,-545.68C732.08,-542.17 492.71,-532.02 290.5,-503 287.62,-502.59 284.67,-502.11 281.7,-501.59"/>
<polygon fill="#63b8ff" stroke="#63b8ff" points="862.9,-549.18 872.99,-545.95 863.09,-542.19 862.9,-549.18"/>
</a>
</g>
</g>
<!-- Node14 -->
<g id="Node000014" class="node">
<title>Node14</title>
<g id="a_Node000014"><a xlink:href="Equalizer_8cpp.html" target="_top" xlink:title=" ">
<polygon fill="white" stroke="#666666" points="407.5,-503 299.5,-503 299.5,-473 407.5,-473 407.5,-503"/>
<text text-anchor="start" x="307.5" y="-491" font-family="Helvetica,sans-Serif" font-size="10.00">Source/DSP/Effects</text>
<text text-anchor="middle" x="353.5" y="-480" font-family="Helvetica,sans-Serif" font-size="10.00">/Equalizer.cpp</text>
</a>
</g>
</g>
<!-- Node1&#45;&gt;Node14 -->
<g id="edge17_Node000001_Node000014" class="edge">
<title>Node1&#45;&gt;Node14</title>
<g id="a_edge17_Node000001_Node000014"><a xlink:title=" ">
<path fill="none" stroke="#63b8ff" d="M862.57,-543.56C753.59,-538.21 571.58,-526.47 416.5,-503 413.62,-502.56 410.67,-502.07 407.71,-501.54"/>
<polygon fill="#63b8ff" stroke="#63b8ff" points="862.4,-547.06 872.56,-544.05 862.74,-540.07 862.4,-547.06"/>
</a>
</g>
</g>
<!-- Node15 -->
<g id="Node000015" class="node">
<title>Node15</title>
<g id="a_Node000015"><a xlink:href="ModFX_8cpp.html" target="_top" xlink:title=" ">
<polygon fill="white" stroke="#666666" points="533.5,-503 425.5,-503 425.5,-473 533.5,-473 533.5,-503"/>
<text text-anchor="start" x="433.5" y="-491" font-family="Helvetica,sans-Serif" font-size="10.00">Source/DSP/Effects</text>
<text text-anchor="middle" x="479.5" y="-480" font-family="Helvetica,sans-Serif" font-size="10.00">/ModFX.cpp</text>
</a>
</g>
</g>
<!-- Node1&#45;&gt;Node15 -->
<g id="edge18_Node000001_Node000015" class="edge">
<title>Node1&#45;&gt;Node15</title>
<g id="a_edge18_Node000001_Node000015"><a xlink:title=" ">
<path fill="none" stroke="#63b8ff" d="M862.74,-540.27C777.95,-533.21 651.59,-520.88 542.5,-503 539.63,-502.53 536.68,-502.01 533.72,-501.45"/>
<polygon fill="#63b8ff" stroke="#63b8ff" points="862.61,-543.78 872.87,-541.11 863.19,-536.8 862.61,-543.78"/>
</a>
</g>
</g>
<!-- Node16 -->
<g id="Node000016" class="node">
<title>Node16</title>
<g id="a_Node000016"><a xlink:href="MultiModeFilter_8h.html" target="_top" xlink:title=" ">
<polygon fill="white" stroke="#666666" points="657,-503 552,-503 552,-473 657,-473 657,-503"/>
<text text-anchor="start" x="560" y="-491" font-family="Helvetica,sans-Serif" font-size="10.00">Source/DSP/Filters</text>
<text text-anchor="middle" x="604.5" y="-480" font-family="Helvetica,sans-Serif" font-size="10.00">/MultiModeFilter.h</text>
</a>
</g>
</g>
<!-- Node1&#45;&gt;Node16 -->
<g id="edge19_Node000001_Node000016" class="edge">
<title>Node1&#45;&gt;Node16</title>
<g id="a_edge19_Node000001_Node000016"><a xlink:title=" ">
<path fill="none" stroke="#63b8ff" d="M884.36,-537.59C825.02,-529.41 740.22,-516.9 666.5,-503 663.46,-502.43 660.35,-501.81 657.21,-501.17"/>
<polygon fill="#63b8ff" stroke="#63b8ff" points="884.01,-541.08 894.4,-538.97 884.96,-534.14 884.01,-541.08"/>
</a>
</g>
</g>
<!-- Node22 -->
<g id="Node000022" class="node">
<title>Node22</title>
<g id="a_Node000022"><a xlink:href="VirtualPatchMatrix_8cpp.html" target="_top" xlink:title=" ">
<polygon fill="white" stroke="#666666" points="805.5,-503 675.5,-503 675.5,-473 805.5,-473 805.5,-503"/>
<text text-anchor="start" x="683.5" y="-491" font-family="Helvetica,sans-Serif" font-size="10.00">Source/DSP/Modulation</text>
<text text-anchor="middle" x="740.5" y="-480" font-family="Helvetica,sans-Serif" font-size="10.00">/VirtualPatchMatrix.cpp</text>
</a>
</g>
</g>
<!-- Node1&#45;&gt;Node22 -->
<g id="edge28_Node000001_Node000022" class="edge">
<title>Node1&#45;&gt;Node22</title>
<g id="a_edge28_Node000001_Node000022"><a xlink:title=" ">
<path fill="none" stroke="#63b8ff" d="M917.65,-536.32C882.24,-526.86 831.32,-513.26 793.15,-503.06"/>
<polygon fill="#63b8ff" stroke="#63b8ff" points="917.09,-539.79 927.66,-538.99 918.9,-533.03 917.09,-539.79"/>
</a>
</g>
</g>
<!-- Node23 -->
<g id="Node000023" class="node">
<title>Node23</title>
<g id="a_Node000023"><a xlink:href="DWGSOscillator_8cpp.html" target="_top" xlink:title=" ">
<polygon fill="white" stroke="#666666" points="951,-503 824,-503 824,-473 951,-473 951,-503"/>
<text text-anchor="start" x="832" y="-491" font-family="Helvetica,sans-Serif" font-size="10.00">Source/DSP/Oscillators</text>
<text text-anchor="middle" x="887.5" y="-480" font-family="Helvetica,sans-Serif" font-size="10.00">/DWGSOscillator.cpp</text>
</a>
</g>
</g>
<!-- Node1&#45;&gt;Node23 -->
<g id="edge29_Node000001_Node000023" class="edge">
<title>Node1&#45;&gt;Node23</title>
<g id="a_edge29_Node000001_Node000023"><a xlink:title=" ">
<path fill="none" stroke="#63b8ff" d="M941.04,-532.5C929.9,-523.45 915.81,-512 904.87,-503.11"/>
<polygon fill="#63b8ff" stroke="#63b8ff" points="938.91,-535.28 948.88,-538.87 943.32,-529.85 938.91,-535.28"/>
</a>
</g>
</g>
<!-- Node24 -->
<g id="Node000024" class="node">
<title>Node24</title>
<g id="a_Node000024"><a xlink:href="DWGSTables_8cpp.html" target="_top" xlink:title=" ">
<polygon fill="white" stroke="#666666" points="1096,-503 969,-503 969,-473 1096,-473 1096,-503"/>
<text text-anchor="start" x="977" y="-491" font-family="Helvetica,sans-Serif" font-size="10.00">Source/DSP/Oscillators</text>
<text text-anchor="middle" x="1032.5" y="-480" font-family="Helvetica,sans-Serif" font-size="10.00">/DWGSTables.cpp</text>
</a>
</g>
</g>
<!-- Node1&#45;&gt;Node24 -->
<g id="edge30_Node000001_Node000024" class="edge">
<title>Node1&#45;&gt;Node24</title>
<g id="a_edge30_Node000001_Node000024"><a xlink:title=" ">
<path fill="none" stroke="#63b8ff" d="M978.22,-532.5C989.51,-523.45 1003.8,-512 1014.89,-503.11"/>
<polygon fill="#63b8ff" stroke="#63b8ff" points="975.89,-529.88 970.27,-538.87 980.26,-535.35 975.89,-529.88"/>
</a>
</g>
</g>
<!-- Node25 -->
<g id="Node000025" class="node">
<title>Node25</title>
<g id="a_Node000025"><a xlink:href="NoiseGenerator_8cpp.html" target="_top" xlink:title=" ">
<polygon fill="white" stroke="#666666" points="1241,-503 1114,-503 1114,-473 1241,-473 1241,-503"/>
<text text-anchor="start" x="1122" y="-491" font-family="Helvetica,sans-Serif" font-size="10.00">Source/DSP/Oscillators</text>
<text text-anchor="middle" x="1177.5" y="-480" font-family="Helvetica,sans-Serif" font-size="10.00">/NoiseGenerator.cpp</text>
</a>
</g>
</g>
<!-- Node1&#45;&gt;Node25 -->
<g id="edge31_Node000001_Node000025" class="edge">
<title>Node1&#45;&gt;Node25</title>
<g id="a_edge31_Node000001_Node000025"><a xlink:title=" ">
<path fill="none" stroke="#63b8ff" d="M1001.16,-536.32C1036.4,-526.86 1087.09,-513.26 1125.09,-503.06"/>
<polygon fill="#63b8ff" stroke="#63b8ff" points="999.95,-533.02 991.2,-538.99 1001.76,-539.78 999.95,-533.02"/>
</a>
</g>
</g>
<!-- Node26 -->
<g id="Node000026" class="node">
<title>Node26</title>
<g id="a_Node000026"><a xlink:href="VAOscillator_8h.html" target="_top" xlink:title=" ">
<polygon fill="white" stroke="#666666" points="1531,-503 1404,-503 1404,-473 1531,-473 1531,-503"/>
<text text-anchor="start" x="1412" y="-491" font-family="Helvetica,sans-Serif" font-size="10.00">Source/DSP/Oscillators</text>
<text text-anchor="middle" x="1467.5" y="-480" font-family="Helvetica,sans-Serif" font-size="10.00">/VAOscillator.h</text>
</a>
</g>
</g>
<!-- Node1&#45;&gt;Node26 -->
<g id="edge32_Node000001_Node000026" class="edge">
<title>Node1&#45;&gt;Node26</title>
<g id="a_edge32_Node000001_Node000026"><a xlink:title=" ">
<path fill="none" stroke="#63b8ff" d="M1056.26,-540.15C1144.82,-532.82 1279.36,-520.18 1395.5,-503 1398.27,-502.59 1401.1,-502.15 1403.95,-501.68"/>
<polygon fill="#63b8ff" stroke="#63b8ff" points="1055.91,-536.66 1046.23,-540.97 1056.49,-543.64 1055.91,-536.66"/>
</a>
</g>
</g>
<!-- Node30 -->
<g id="Node000030" class="node">
<title>Node30</title>
<g id="a_Node000030"><a xlink:href="VoxWaveOscillator_8h.html" target="_top" xlink:title=" ">
<polygon fill="white" stroke="#666666" points="1386,-503 1259,-503 1259,-473 1386,-473 1386,-503"/>
<text text-anchor="start" x="1267" y="-491" font-family="Helvetica,sans-Serif" font-size="10.00">Source/DSP/Oscillators</text>
<text text-anchor="middle" x="1322.5" y="-480" font-family="Helvetica,sans-Serif" font-size="10.00">/VoxWaveOscillator.h</text>
</a>
</g>
</g>
<!-- Node1&#45;&gt;Node30 -->
<g id="edge38_Node000001_Node000030" class="edge">
<title>Node1&#45;&gt;Node30</title>
<g id="a_edge38_Node000001_Node000030"><a xlink:title=" ">
<path fill="none" stroke="#63b8ff" d="M1030.05,-537.52C1089.06,-528.98 1175.41,-516.04 1250.5,-503 1253.26,-502.52 1256.08,-502.02 1258.92,-501.51"/>
<polygon fill="#63b8ff" stroke="#63b8ff" points="1029.48,-534.07 1020.09,-538.96 1030.48,-541 1029.48,-534.07"/>
</a>
</g>
</g>
<!-- Node32 -->
<g id="Node000032" class="node">
<title>Node32</title>
<g id="a_Node000032"><a xlink:href="Arpeggiator_8cpp.html" target="_top" xlink:title=" ">
<polygon fill="white" stroke="#666666" points="1675.5,-503 1549.5,-503 1549.5,-473 1675.5,-473 1675.5,-503"/>
<text text-anchor="start" x="1557.5" y="-491" font-family="Helvetica,sans-Serif" font-size="10.00">Source/DSP/Sequencer</text>
<text text-anchor="middle" x="1612.5" y="-480" font-family="Helvetica,sans-Serif" font-size="10.00">/Arpeggiator.cpp</text>
</a>
</g>
</g>
<!-- Node1&#45;&gt;Node32 -->
<g id="edge41_Node000001_Node000032" class="edge">
<title>Node1&#45;&gt;Node32</title>
<g id="a_edge41_Node000001_Node000032"><a xlink:title=" ">
<path fill="none" stroke="#63b8ff" d="M1056.69,-543.49C1172.37,-537.93 1371.17,-525.87 1540.5,-503 1543.4,-502.61 1546.36,-502.17 1549.35,-501.71"/>
<polygon fill="#63b8ff" stroke="#63b8ff" points="1056.27,-540.01 1046.45,-543.98 1056.61,-547 1056.27,-540.01"/>
</a>
</g>
</g>
<!-- Node33 -->
<g id="Node000033" class="node">
<title>Node33</title>
<g id="a_Node000033"><a xlink:href="ModSequencer_8cpp.html" target="_top" xlink:title=" ">
<polygon fill="white" stroke="#666666" points="1819.5,-503 1693.5,-503 1693.5,-473 1819.5,-473 1819.5,-503"/>
<text text-anchor="start" x="1701.5" y="-491" font-family="Helvetica,sans-Serif" font-size="10.00">Source/DSP/Sequencer</text>
<text text-anchor="middle" x="1756.5" y="-480" font-family="Helvetica,sans-Serif" font-size="10.00">/ModSequencer.cpp</text>
</a>
</g>
</g>
<!-- Node1&#45;&gt;Node33 -->
<g id="edge42_Node000001_Node000033" class="edge">
<title>Node1&#45;&gt;Node33</title>
<g id="a_edge42_Node000001_Node000033"><a xlink:title=" ">
<path fill="none" stroke="#63b8ff" d="M1056.28,-545.58C1195.64,-541.9 1460.71,-531.5 1684.5,-503 1687.41,-502.63 1690.37,-502.21 1693.36,-501.76"/>
<polygon fill="#63b8ff" stroke="#63b8ff" points="1055.96,-542.08 1046.05,-545.84 1056.14,-549.08 1055.96,-542.08"/>
</a>
</g>
</g>
<!-- Node34 -->
<g id="Node000034" class="node">
<title>Node34</title>
<g id="a_Node000034"><a xlink:href="Vocoder16Band_8cpp.html" target="_top" xlink:title=" ">
<polygon fill="white" stroke="#666666" points="1953.5,-503 1837.5,-503 1837.5,-473 1953.5,-473 1953.5,-503"/>
<text text-anchor="start" x="1845.5" y="-491" font-family="Helvetica,sans-Serif" font-size="10.00">Source/DSP/Vocoder</text>
<text text-anchor="middle" x="1895.5" y="-480" font-family="Helvetica,sans-Serif" font-size="10.00">/Vocoder16Band.cpp</text>
</a>
</g>
</g>
<!-- Node1&#45;&gt;Node34 -->
<g id="edge43_Node000001_Node000034" class="edge">
<title>Node1&#45;&gt;Node34</title>
<g id="a_edge43_Node000001_Node000034"><a xlink:title=" ">
<path fill="none" stroke="#63b8ff" d="M1056.6,-547.42C1217.66,-546.19 1549.96,-539.01 1828.5,-503 1831.45,-502.62 1834.46,-502.18 1837.49,-501.7"/>
<polygon fill="#63b8ff" stroke="#63b8ff" points="1056.21,-543.92 1046.24,-547.49 1056.26,-550.92 1056.21,-543.92"/>
</a>
</g>
</g>
<!-- Node3&#45;&gt;Node2 -->
<g id="edge15_Node000003_Node000002" class="edge">
<title>Node3&#45;&gt;Node2</title>
<g id="a_edge15_Node000003_Node000002"><a xlink:title=" ">
<path fill="none" stroke="#63b8ff" d="M202.15,-466.2C190.57,-456.7 177.15,-445.69 166.76,-437.16"/>
<polygon fill="#63b8ff" stroke="#63b8ff" points="200.24,-469.16 210.19,-472.8 204.68,-463.75 200.24,-469.16"/>
</a>
</g>
</g>
<!-- Node4 -->
<g id="Node000004" class="node">
<title>Node4</title>
<g id="a_Node000004"><a xlink:href="SynthEngine_8h.html" target="_top" xlink:title=" ">
<polygon fill="white" stroke="#666666" points="308.5,-250 160.5,-250 160.5,-231 308.5,-231 308.5,-250"/>
<text text-anchor="middle" x="234.5" y="-238" font-family="Helvetica,sans-Serif" font-size="10.00">Source/Core/SynthEngine.h</text>
</a>
</g>
</g>
<!-- Node3&#45;&gt;Node4 -->
<g id="edge3_Node000003_Node000004" class="edge">
<title>Node3&#45;&gt;Node4</title>
<g id="a_edge3_Node000003_Node000004"><a xlink:title=" ">
<path fill="none" stroke="#63b8ff" d="M228.2,-462.49C229.72,-409.1 233.28,-284.35 234.25,-250.25"/>
<polygon fill="#63b8ff" stroke="#63b8ff" points="224.69,-462.64 227.91,-472.74 231.69,-462.84 224.69,-462.64"/>
</a>
</g>
</g>
<!-- Node13 -->
<g id="Node000013" class="node">
<title>Node13</title>
<g id="a_Node000013"><a xlink:href="WasmBridge_8cpp.html" target="_top" xlink:title=" ">
<polygon fill="white" stroke="#666666" points="697,-250 530,-250 530,-231 697,-231 697,-250"/>
<text text-anchor="middle" x="613.5" y="-238" font-family="Helvetica,sans-Serif" font-size="10.00">Source/Wasm/WasmBridge.cpp</text>
</a>
</g>
</g>
<!-- Node3&#45;&gt;Node13 -->
<g id="edge16_Node000003_Node000013" class="edge">
<title>Node3&#45;&gt;Node13</title>
<g id="a_edge16_Node000003_Node000013"><a xlink:title=" ">
<path fill="none" stroke="#63b8ff" d="M260.39,-467.86C315.67,-435.48 430.4,-367.29 524.5,-305 552.83,-286.25 585.06,-262.67 601.88,-250.19"/>
<polygon fill="#63b8ff" stroke="#63b8ff" points="258.59,-464.86 251.73,-472.93 262.12,-470.91 258.59,-464.86"/>
</a>
</g>
</g>
<!-- Node5 -->
<g id="Node000005" class="node">
<title>Node5</title>
<g id="a_Node000005"><a xlink:href="SynthEngine_8cpp.html" target="_top" xlink:title=" ">
<polygon fill="white" stroke="#666666" points="223,-195 64,-195 64,-176 223,-176 223,-195"/>
<text text-anchor="middle" x="143.5" y="-183" font-family="Helvetica,sans-Serif" font-size="10.00">Source/Core/SynthEngine.cpp</text>
</a>
</g>
</g>
<!-- Node4&#45;&gt;Node5 -->
<g id="edge4_Node000004_Node000005" class="edge">
<title>Node4&#45;&gt;Node5</title>
<g id="a_edge4_Node000004_Node000005"><a xlink:title=" ">
<path fill="none" stroke="#63b8ff" d="M210.8,-225.7C194.22,-216.04 172.59,-203.44 158.39,-195.17"/>
<polygon fill="#63b8ff" stroke="#63b8ff" points="209.48,-228.98 219.88,-230.98 213,-222.93 209.48,-228.98"/>
</a>
</g>
</g>
<!-- Node6 -->
<g id="Node000006" class="node">
<title>Node6</title>
<g id="a_Node000006"><a xlink:href="PluginProcessor_8h.html" target="_top" xlink:title=" ">
<polygon fill="white" stroke="#666666" points="412,-195 241,-195 241,-176 412,-176 412,-195"/>
<text text-anchor="middle" x="326.5" y="-183" font-family="Helvetica,sans-Serif" font-size="10.00">Source/Plugin/PluginProcessor.h</text>
</a>
</g>
</g>
<!-- Node4&#45;&gt;Node6 -->
<g id="edge5_Node000004_Node000006" class="edge">
<title>Node4&#45;&gt;Node6</title>
<g id="a_edge5_Node000004_Node000006"><a xlink:title=" ">
<path fill="none" stroke="#63b8ff" d="M257.99,-225.97C274.81,-216.28 296.95,-203.52 311.45,-195.17"/>
<polygon fill="#63b8ff" stroke="#63b8ff" points="256.2,-222.96 249.28,-230.98 259.69,-229.03 256.2,-222.96"/>
</a>
</g>
</g>
<!-- Node7 -->
<g id="Node000007" class="node">
<title>Node7</title>
<g id="a_Node000007"><a xlink:href="BridgeActions_8cpp.html" target="_top" xlink:title=" ">
<polygon fill="white" stroke="#666666" points="173,-74 0,-74 0,-55 173,-55 173,-74"/>
<text text-anchor="middle" x="86.5" y="-62" font-family="Helvetica,sans-Serif" font-size="10.00">Source/Plugin/BridgeActions.cpp</text>
</a>
</g>
</g>
<!-- Node6&#45;&gt;Node7 -->
<g id="edge6_Node000006_Node000007" class="edge">
<title>Node6&#45;&gt;Node7</title>
<g id="a_edge6_Node000006_Node000007"><a xlink:title=" ">
<path fill="none" stroke="#63b8ff" d="M252.23,-174.38C204.24,-166.64 147.19,-154.78 127.5,-140 104.95,-123.07 93.22,-89.93 88.73,-74.2"/>
<polygon fill="#63b8ff" stroke="#63b8ff" points="251.9,-177.87 262.32,-175.97 252.99,-170.96 251.9,-177.87"/>
</a>
</g>
</g>
<!-- Node8 -->
<g id="Node000008" class="node">
<title>Node8</title>
<g id="a_Node000008"><a xlink:href="BridgeActions_8h.html" target="_top" xlink:title=" ">
<polygon fill="white" stroke="#666666" points="298.5,-134.5 136.5,-134.5 136.5,-115.5 298.5,-115.5 298.5,-134.5"/>
<text text-anchor="middle" x="217.5" y="-122.5" font-family="Helvetica,sans-Serif" font-size="10.00">Source/Plugin/BridgeActions.h</text>
</a>
</g>
</g>
<!-- Node6&#45;&gt;Node8 -->
<g id="edge7_Node000006_Node000008" class="edge">
<title>Node6&#45;&gt;Node8</title>
<g id="a_edge7_Node000006_Node000008"><a xlink:title=" ">
<path fill="none" stroke="#63b8ff" d="M301.49,-171.08C280.64,-159.88 251.55,-144.27 233.65,-134.67"/>
<polygon fill="#63b8ff" stroke="#63b8ff" points="299.95,-174.22 310.42,-175.87 303.26,-168.06 299.95,-174.22"/>
</a>
</g>
</g>
<!-- Node9 -->
<g id="Node000009" class="node">
<title>Node9</title>
<g id="a_Node000009"><a xlink:href="PluginEditor_8h.html" target="_top" xlink:title=" ">
<polygon fill="white" stroke="#666666" points="343.5,-74 191.5,-74 191.5,-55 343.5,-55 343.5,-74"/>
<text text-anchor="middle" x="267.5" y="-62" font-family="Helvetica,sans-Serif" font-size="10.00">Source/Plugin/PluginEditor.h</text>
</a>
</g>
</g>
<!-- Node6&#45;&gt;Node9 -->
<g id="edge12_Node000006_Node000009" class="edge">
<title>Node6&#45;&gt;Node9</title>
<g id="a_edge12_Node000006_Node000009"><a xlink:title=" ">
<path fill="none" stroke="#63b8ff" d="M324.26,-165.74C321.82,-150.1 316.92,-127.62 307.5,-110 299.86,-95.71 286.68,-82.31 277.54,-74.02"/>
<polygon fill="#63b8ff" stroke="#63b8ff" points="320.81,-166.32 325.64,-175.75 327.75,-165.36 320.81,-166.32"/>
</a>
</g>
</g>
<!-- Node11 -->
<g id="Node000011" class="node">
<title>Node11</title>
<g id="a_Node000011"><a xlink:href="PluginProcessor_8cpp.html" target="_top" xlink:title=" ">
<polygon fill="white" stroke="#666666" points="462.5,-19 280.5,-19 280.5,0 462.5,0 462.5,-19"/>
<text text-anchor="middle" x="371.5" y="-7" font-family="Helvetica,sans-Serif" font-size="10.00">Source/Plugin/PluginProcessor.cpp</text>
</a>
</g>
</g>
<!-- Node6&#45;&gt;Node11 -->
<g id="edge13_Node000006_Node000011" class="edge">
<title>Node6&#45;&gt;Node11</title>
<g id="a_edge13_Node000006_Node000011"><a xlink:title=" ">
<path fill="none" stroke="#63b8ff" d="M331.4,-165.56C341.08,-128.12 362.33,-45.95 369.26,-19.14"/>
<polygon fill="#63b8ff" stroke="#63b8ff" points="327.91,-165.07 328.79,-175.63 334.69,-166.83 327.91,-165.07"/>
</a>
</g>
</g>
<!-- Node12 -->
<g id="Node000012" class="node">
<title>Node12</title>
<g id="a_Node000012"><a xlink:href="StandaloneApp_8cpp.html" target="_top" xlink:title=" ">
<polygon fill="white" stroke="#666666" points="565,-140 400,-140 400,-110 565,-110 565,-140"/>
<text text-anchor="start" x="408" y="-128" font-family="Helvetica,sans-Serif" font-size="10.00">Source/Standalone/Standalone</text>
<text text-anchor="middle" x="482.5" y="-117" font-family="Helvetica,sans-Serif" font-size="10.00">App.cpp</text>
</a>
</g>
</g>
<!-- Node6&#45;&gt;Node12 -->
<g id="edge14_Node000006_Node000012" class="edge">
<title>Node6&#45;&gt;Node12</title>
<g id="a_edge14_Node000006_Node000012"><a xlink:title=" ">
<path fill="none" stroke="#63b8ff" d="M358.61,-172.46C383.7,-163.05 418.62,-149.95 445,-140.06"/>
<polygon fill="#63b8ff" stroke="#63b8ff" points="357.32,-169.21 349.18,-175.99 359.78,-175.76 357.32,-169.21"/>
</a>
</g>
</g>
<!-- Node8&#45;&gt;Node7 -->
<g id="edge8_Node000008_Node000007" class="edge">
<title>Node8&#45;&gt;Node7</title>
<g id="a_edge8_Node000008_Node000007"><a xlink:title=" ">
<path fill="none" stroke="#63b8ff" d="M189.02,-111.28C163.74,-99.99 127.51,-83.81 105.57,-74.02"/>
<polygon fill="#63b8ff" stroke="#63b8ff" points="187.89,-114.61 198.45,-115.49 190.75,-108.22 187.89,-114.61"/>
</a>
</g>
</g>
<!-- Node8&#45;&gt;Node9 -->
<g id="edge9_Node000008_Node000009" class="edge">
<title>Node8&#45;&gt;Node9</title>
<g id="a_edge9_Node000008_Node000009"><a xlink:title=" ">
<path fill="none" stroke="#63b8ff" d="M231.64,-107.45C240.9,-96.62 252.62,-82.91 260.09,-74.17"/>
<polygon fill="#63b8ff" stroke="#63b8ff" points="228.71,-105.49 224.88,-115.37 234.04,-110.04 228.71,-105.49"/>
</a>
</g>
</g>
<!-- Node10 -->
<g id="Node000010" class="node">
<title>Node10</title>
<g id="a_Node000010"><a xlink:href="PluginEditor_8cpp.html" target="_top" xlink:title=" ">
<polygon fill="white" stroke="#666666" points="262.5,-19 98.5,-19 98.5,0 262.5,0 262.5,-19"/>
<text text-anchor="middle" x="180.5" y="-7" font-family="Helvetica,sans-Serif" font-size="10.00">Source/Plugin/PluginEditor.cpp</text>
</a>
</g>
</g>
<!-- Node9&#45;&gt;Node10 -->
<g id="edge10_Node000009_Node000010" class="edge">
<title>Node9&#45;&gt;Node10</title>
<g id="a_edge10_Node000009_Node000010"><a xlink:title=" ">
<path fill="none" stroke="#63b8ff" d="M244.84,-49.7C228.99,-40.04 208.31,-27.44 194.73,-19.17"/>
<polygon fill="#63b8ff" stroke="#63b8ff" points="243.16,-52.77 253.52,-54.98 246.8,-46.79 243.16,-52.77"/>
</a>
</g>
</g>
<!-- Node9&#45;&gt;Node11 -->
<g id="edge11_Node000009_Node000011" class="edge">
<title>Node9&#45;&gt;Node11</title>
<g id="a_edge11_Node000009_Node000011"><a xlink:title=" ">
<path fill="none" stroke="#63b8ff" d="M293.27,-50.37C312.37,-40.63 337.87,-27.64 354.49,-19.17"/>
<polygon fill="#63b8ff" stroke="#63b8ff" points="291.53,-47.33 284.21,-54.98 294.71,-53.56 291.53,-47.33"/>
</a>
</g>
</g>
<!-- Node17 -->
<g id="Node000017" class="node">
<title>Node17</title>
<g id="a_Node000017"><a xlink:href="Voice_8h.html" target="_top" xlink:title=" ">
<polygon fill="white" stroke="#666666" points="926,-365.5 813,-365.5 813,-346.5 926,-346.5 926,-365.5"/>
<text text-anchor="middle" x="869.5" y="-353.5" font-family="Helvetica,sans-Serif" font-size="10.00">Source/Core/Voice.h</text>
</a>
</g>
</g>
<!-- Node16&#45;&gt;Node17 -->
<g id="edge20_Node000016_Node000017" class="edge">
<title>Node16&#45;&gt;Node17</title>
<g id="a_edge20_Node000016_Node000017"><a xlink:title=" ">
<path fill="none" stroke="#63b8ff" d="M603.74,-462.7C604.56,-444.85 608.72,-421.31 623.5,-407 649.96,-381.39 748.69,-367.8 812.75,-361.53"/>
<polygon fill="#63b8ff" stroke="#63b8ff" points="600.24,-462.9 603.61,-472.95 607.24,-463 600.24,-462.9"/>
</a>
</g>
</g>
<!-- Node21 -->
<g id="Node000021" class="node">
<title>Node21</title>
<g id="a_Node000021"><a xlink:href="MultiModeFilter_8cpp.html" target="_top" xlink:title=" ">
<polygon fill="white" stroke="#666666" points="748.5,-437 632.5,-437 632.5,-407 748.5,-407 748.5,-437"/>
<text text-anchor="start" x="640.5" y="-425" font-family="Helvetica,sans-Serif" font-size="10.00">Source/DSP/Filters</text>
<text text-anchor="middle" x="690.5" y="-414" font-family="Helvetica,sans-Serif" font-size="10.00">/MultiModeFilter.cpp</text>
</a>
</g>
</g>
<!-- Node16&#45;&gt;Node21 -->
<g id="edge27_Node000016_Node000021" class="edge">
<title>Node16&#45;&gt;Node21</title>
<g id="a_edge27_Node000016_Node000021"><a xlink:title=" ">
<path fill="none" stroke="#63b8ff" d="M631.71,-466.75C644.64,-457.13 659.79,-445.86 671.47,-437.16"/>
<polygon fill="#63b8ff" stroke="#63b8ff" points="629.52,-464.02 623.59,-472.8 633.7,-469.63 629.52,-464.02"/>
</a>
</g>
</g>
<!-- Node17&#45;&gt;Node13 -->
<g id="edge26_Node000017_Node000013" class="edge">
<title>Node17&#45;&gt;Node13</title>
<g id="a_edge26_Node000017_Node000013"><a xlink:title=" ">
<path fill="none" stroke="#63b8ff" d="M840.85,-342.3C788.29,-319 677.75,-269.99 632.96,-250.13"/>
<polygon fill="#63b8ff" stroke="#63b8ff" points="839.7,-345.62 850.26,-346.47 842.54,-339.22 839.7,-345.62"/>
</a>
</g>
</g>
<!-- Node18 -->
<g id="Node000018" class="node">
<title>Node18</title>
<g id="a_Node000018"><a xlink:href="Voice_8cpp.html" target="_top" xlink:title=" ">
<polygon fill="white" stroke="#666666" points="932,-305 807,-305 807,-286 932,-286 932,-305"/>
<text text-anchor="middle" x="869.5" y="-293" font-family="Helvetica,sans-Serif" font-size="10.00">Source/Core/Voice.cpp</text>
</a>
</g>
</g>
<!-- Node17&#45;&gt;Node18 -->
<g id="edge21_Node000017_Node000018" class="edge">
<title>Node17&#45;&gt;Node18</title>
<g id="a_edge21_Node000017_Node000018"><a xlink:title=" ">
<path fill="none" stroke="#63b8ff" d="M869.5,-336.16C869.5,-325.74 869.5,-313.3 869.5,-305.17"/>
<polygon fill="#63b8ff" stroke="#63b8ff" points="866,-336.37 869.5,-346.37 873,-336.37 866,-336.37"/>
</a>
</g>
</g>
<!-- Node19 -->
<g id="Node000019" class="node">
<title>Node19</title>
<g id="a_Node000019"><a xlink:href="VoiceManager_8h.html" target="_top" xlink:title=" ">
<polygon fill="white" stroke="#666666" points="516,-305 361,-305 361,-286 516,-286 516,-305"/>
<text text-anchor="middle" x="438.5" y="-293" font-family="Helvetica,sans-Serif" font-size="10.00">Source/Core/VoiceManager.h</text>
</a>
</g>
</g>
<!-- Node17&#45;&gt;Node19 -->
<g id="edge22_Node000017_Node000019" class="edge">
<title>Node17&#45;&gt;Node19</title>
<g id="a_edge22_Node000017_Node000019"><a xlink:title=" ">
<path fill="none" stroke="#63b8ff" d="M802.72,-345.94C720.46,-334.77 581.78,-315.95 501.36,-305.03"/>
<polygon fill="#63b8ff" stroke="#63b8ff" points="802.33,-349.42 812.71,-347.29 803.27,-342.48 802.33,-349.42"/>
</a>
</g>
</g>
<!-- Node19&#45;&gt;Node4 -->
<g id="edge23_Node000019_Node000004" class="edge">
<title>Node19&#45;&gt;Node4</title>
<g id="a_edge23_Node000019_Node000004"><a xlink:title=" ">
<path fill="none" stroke="#63b8ff" d="M395.92,-283.44C357.73,-273.52 302.48,-259.16 267.53,-250.08"/>
<polygon fill="#63b8ff" stroke="#63b8ff" points="395.17,-286.86 405.72,-285.98 396.93,-280.08 395.17,-286.86"/>
</a>
</g>
</g>
<!-- Node19&#45;&gt;Node13 -->
<g id="edge25_Node000019_Node000013" class="edge">
<title>Node19&#45;&gt;Node13</title>
<g id="a_edge25_Node000019_Node000013"><a xlink:title=" ">
<path fill="none" stroke="#63b8ff" d="M476.29,-283.06C509,-273.15 555.57,-259.04 585.16,-250.08"/>
<polygon fill="#63b8ff" stroke="#63b8ff" points="475.17,-279.74 466.62,-285.98 477.2,-286.44 475.17,-279.74"/>
</a>
</g>
</g>
<!-- Node20 -->
<g id="Node000020" class="node">
<title>Node20</title>
<g id="a_Node000020"><a xlink:href="VoiceManager_8cpp.html" target="_top" xlink:title=" ">
<polygon fill="white" stroke="#666666" points="512,-250 345,-250 345,-231 512,-231 512,-250"/>
<text text-anchor="middle" x="428.5" y="-238" font-family="Helvetica,sans-Serif" font-size="10.00">Source/Core/VoiceManager.cpp</text>
</a>
</g>
</g>
<!-- Node19&#45;&gt;Node20 -->
<g id="edge24_Node000019_Node000020" class="edge">
<title>Node19&#45;&gt;Node20</title>
<g id="a_edge24_Node000019_Node000020"><a xlink:title=" ">
<path fill="none" stroke="#63b8ff" d="M434.95,-275.66C433.3,-266.93 431.42,-256.99 430.12,-250.09"/>
<polygon fill="#63b8ff" stroke="#63b8ff" points="431.56,-276.57 436.85,-285.75 438.43,-275.27 431.56,-276.57"/>
</a>
</g>
</g>
<!-- Node26&#45;&gt;Node17 -->
<g id="edge33_Node000026_Node000017" class="edge">
<title>Node26&#45;&gt;Node17</title>
<g id="a_edge33_Node000026_Node000017"><a xlink:title=" ">
<path fill="none" stroke="#63b8ff" d="M1403.67,-469.9C1377.68,-461.7 1347.86,-450.66 1322.5,-437 1303.24,-426.63 1303.74,-415.27 1283.5,-407 1220.08,-381.09 1024.18,-366.16 926.33,-360.14"/>
<polygon fill="#63b8ff" stroke="#63b8ff" points="1402.83,-473.3 1413.42,-472.9 1404.89,-466.61 1402.83,-473.3"/>
</a>
</g>
</g>
<!-- Node27 -->
<g id="Node000027" class="node">
<title>Node27</title>
<g id="a_Node000027"><a xlink:href="OSC2Modulator_8h.html" target="_top" xlink:title=" ">
<polygon fill="white" stroke="#666666" points="1603,-437 1476,-437 1476,-407 1603,-407 1603,-437"/>
<text text-anchor="start" x="1484" y="-425" font-family="Helvetica,sans-Serif" font-size="10.00">Source/DSP/Oscillators</text>
<text text-anchor="middle" x="1539.5" y="-414" font-family="Helvetica,sans-Serif" font-size="10.00">/OSC2Modulator.h</text>
</a>
</g>
</g>
<!-- Node26&#45;&gt;Node27 -->
<g id="edge34_Node000026_Node000027" class="edge">
<title>Node26&#45;&gt;Node27</title>
<g id="a_edge34_Node000026_Node000027"><a xlink:title=" ">
<path fill="none" stroke="#63b8ff" d="M1491.21,-465.92C1501.83,-456.49 1514.07,-445.61 1523.57,-437.16"/>
<polygon fill="#63b8ff" stroke="#63b8ff" points="1488.63,-463.54 1483.48,-472.8 1493.28,-468.77 1488.63,-463.54"/>
</a>
</g>
</g>
<!-- Node29 -->
<g id="Node000029" class="node">
<title>Node29</title>
<g id="a_Node000029"><a xlink:href="VAOscillator_8cpp.html" target="_top" xlink:title=" ">
<polygon fill="white" stroke="#666666" points="1458,-437 1331,-437 1331,-407 1458,-407 1458,-437"/>
<text text-anchor="start" x="1339" y="-425" font-family="Helvetica,sans-Serif" font-size="10.00">Source/DSP/Oscillators</text>
<text text-anchor="middle" x="1394.5" y="-414" font-family="Helvetica,sans-Serif" font-size="10.00">/VAOscillator.cpp</text>
</a>
</g>
</g>
<!-- Node26&#45;&gt;Node29 -->
<g id="edge37_Node000026_Node000029" class="edge">
<title>Node26&#45;&gt;Node29</title>
<g id="a_edge37_Node000026_Node000029"><a xlink:title=" ">
<path fill="none" stroke="#63b8ff" d="M1443.78,-466.2C1432.94,-456.7 1420.38,-445.69 1410.66,-437.16"/>
<polygon fill="#63b8ff" stroke="#63b8ff" points="1441.47,-468.84 1451.3,-472.8 1446.09,-463.57 1441.47,-468.84"/>
</a>
</g>
</g>
<!-- Node27&#45;&gt;Node17 -->
<g id="edge35_Node000027_Node000017" class="edge">
<title>Node27&#45;&gt;Node17</title>
<g id="a_edge35_Node000027_Node000017"><a xlink:title=" ">
<path fill="none" stroke="#63b8ff" d="M1465.96,-406.88C1262.02,-379.11 1030.96,-365.09 926.2,-359.68"/>
<polygon fill="#63b8ff" stroke="#63b8ff" points="1465.58,-410.36 1475.96,-408.26 1466.53,-403.43 1465.58,-410.36"/>
</a>
</g>
</g>
<!-- Node28 -->
<g id="Node000028" class="node">
<title>Node28</title>
<g id="a_Node000028"><a xlink:href="OSC2Modulator_8cpp.html" target="_top" xlink:title=" ">
<polygon fill="white" stroke="#666666" points="1603,-371 1476,-371 1476,-341 1603,-341 1603,-371"/>
<text text-anchor="start" x="1484" y="-359" font-family="Helvetica,sans-Serif" font-size="10.00">Source/DSP/Oscillators</text>
<text text-anchor="middle" x="1539.5" y="-348" font-family="Helvetica,sans-Serif" font-size="10.00">/OSC2Modulator.cpp</text>
</a>
</g>
</g>
<!-- Node27&#45;&gt;Node28 -->
<g id="edge36_Node000027_Node000028" class="edge">
<title>Node27&#45;&gt;Node28</title>
<g id="a_edge36_Node000027_Node000028"><a xlink:title=" ">
<path fill="none" stroke="#63b8ff" d="M1539.5,-396.54C1539.5,-387.96 1539.5,-378.61 1539.5,-371.16"/>
<polygon fill="#63b8ff" stroke="#63b8ff" points="1536,-396.8 1539.5,-406.8 1543,-396.8 1536,-396.8"/>
</a>
</g>
</g>
<!-- Node30&#45;&gt;Node17 -->
<g id="edge39_Node000030_Node000017" class="edge">
<title>Node30&#45;&gt;Node17</title>
<g id="a_edge39_Node000030_Node000017"><a xlink:title=" ">
<path fill="none" stroke="#63b8ff" d="M1257.69,-470.33C1221.39,-460.85 1175.33,-448.59 1134.5,-437 1047.35,-412.26 944.87,-380.58 896.88,-365.59"/>
<polygon fill="#63b8ff" stroke="#63b8ff" points="1257.1,-473.79 1267.66,-472.93 1258.87,-467.02 1257.1,-473.79"/>
</a>
</g>
</g>
<!-- Node31 -->
<g id="Node000031" class="node">
<title>Node31</title>
<g id="a_Node000031"><a xlink:href="VoxWaveOscillator_8cpp.html" target="_top" xlink:title=" ">
<polygon fill="white" stroke="#666666" points="1274,-437 1143,-437 1143,-407 1274,-407 1274,-437"/>
<text text-anchor="start" x="1151" y="-425" font-family="Helvetica,sans-Serif" font-size="10.00">Source/DSP/Oscillators</text>
<text text-anchor="middle" x="1208.5" y="-414" font-family="Helvetica,sans-Serif" font-size="10.00">/VoxWaveOscillator.cpp</text>
</a>
</g>
</g>
<!-- Node30&#45;&gt;Node31 -->
<g id="edge40_Node000030_Node000031" class="edge">
<title>Node30&#45;&gt;Node31</title>
<g id="a_edge40_Node000030_Node000031"><a xlink:title=" ">
<path fill="none" stroke="#63b8ff" d="M1288.6,-467.97C1270.9,-458.03 1249.63,-446.09 1233.46,-437.01"/>
<polygon fill="#63b8ff" stroke="#63b8ff" points="1287.05,-471.11 1297.48,-472.95 1290.48,-465.01 1287.05,-471.11"/>
</a>
</g>
</g>
</g>
</svg>

<g id="navigator" transform="translate(0 0)" fill="#404254">
  <rect fill="#f2f5e9" fill-opacity="0.5" stroke="#606060" stroke-width=".5" x="0" y="0" width="60" height="60"/>
  <use id="zoomplus" xlink:href="#zoomPlus" x="17" y="9" onmousedown="handleZoom(evt,'in')"/>
  <use id="zoomminus" xlink:href="#zoomMin" x="42" y="9" onmousedown="handleZoom(evt,'out')"/>
  <use id="reset" xlink:href="#resetDef" x="30" y="36" onmousedown="handleReset()"/>
   <use id="arrowup" xlink:href="#arrowUp" x="0" y="0" onmousedown="handlePan(0,-1)"/>
  <use id="arrowright" xlink:href="#arrowRight" x="0" y="0" onmousedown="handlePan(1,0)"/>
  <use id="arrowdown" xlink:href="#arrowDown" x="0" y="0" onmousedown="handlePan(0,1)"/>
  <use id="arrowleft" xlink:href="#arrowLeft" x="0" y="0" onmousedown="handlePan(-1,0)"/>
</g>
<svg viewBox="0 0 15 15" width="100%" height="30px" preserveAspectRatio="xMaxYMin meet">
 <g id="arrow_out" transform="scale(0.3 0.3)">
  <a xlink:href="DSPUtils_8h__dep__incl_org.svg" target="_base">
   <rect id="button" ry="5" rx="5" y="6" x="6" height="38" width="38"
        fill="#f2f5e9" fill-opacity="0.5" stroke="#606060" stroke-width="1.0"/>
   <path id="arrow"
     d="M 11.500037,31.436501 C 11.940474,20.09759 22.043105,11.32322 32.158766,21.979434 L 37.068811,17.246167 C 37.068811,17.246167 37.088388,32 37.088388,32 L 22.160133,31.978069 C 22.160133,31.978069 26.997745,27.140456 26.997745,27.140456 C 18.528582,18.264221 13.291696,25.230495 11.500037,31.436501 z"
     style="fill:#404040;"/>
  </a>
 </g>
</svg>

<style type='text/css'>
<![CDATA[
[data-mouse-over-selected='false'] { opacity: 0.7; }
[data-mouse-over-selected='true']  { opacity: 1.0; }
]]>
</style>
<script type="application/ecmascript"><![CDATA[
document.addEventListener('DOMContentLoaded', (event) => {
  highlightEdges();
  highlightAdjacentNodes();
});
]]></script>
</svg>
