<?xml version="1.0" encoding="UTF-8" standalone="no"?>
<!DOCTYPE svg PUBLIC "-//W3C//DTD SVG 1.1//EN"
 "http://www.w3.org/Graphics/SVG/1.1/DTD/svg11.dtd">
<!-- Generated by graphviz version 2.43.0 (0)
 -->
<!-- Title: Source/DSP/Oscillators/DWGSTables.h Pages: 1 -->
<svg width="195pt" height="148pt"
 viewBox="0.00 0.00 194.94 148.00" xmlns="http://www.w3.org/2000/svg" xmlns:xlink="http://www.w3.org/1999/xlink">

<svg id="main" version="1.1" xmlns="http://www.w3.org/2000/svg" xmlns:xlink="http://www.w3.org/1999/xlink" xml:space="preserve" onload="init(evt)">
<style type="text/css"><![CDATA[
.node, .edge {opacity: 0.7;}
.node.selected, .edge.selected {opacity: 1;}
.edge:hover path { stroke: red; }
.edge:hover polygon { stroke: red; fill: red; }
]]></style>
<script type="application/ecmascript" xlink:href="svg.min.js"/>
<svg id="graph" class="graph">
<g id="graph0" class="graph" transform="scale(1 1) rotate(0) translate(4 144)">
<title>Source/DSP/Oscillators/DWGSTables.h</title>
<!-- Node1 -->
<g id="Node000001" class="node">
<title>Node1</title>
<g id="a_Node000001"><a xlink:title=" ">
<polygon fill="#999999" stroke="#666666" points="168.57,-140 41.57,-140 41.57,-110 168.57,-110 168.57,-140"/>
<text text-anchor="start" x="49.57" y="-128" font-family="Helvetica,sans-Serif" font-size="10.00">Source/DSP/Oscillators</text>
<text text-anchor="middle" x="105.07" y="-117" font-family="Helvetica,sans-Serif" font-size="10.00">/DWGSTables.h</text>
</a>
</g>
</g>
<!-- Node2 -->
<g id="Node000002" class="node">
<title>Node2</title>
<g id="a_Node000002"><a xlink:title=" ">
<polygon fill="#e0e0e0" stroke="#999999" points="51.07,-19 1.07,-19 1.07,0 51.07,0 51.07,-19"/>
<text text-anchor="middle" x="26.07" y="-7" font-family="Helvetica,sans-Serif" font-size="10.00">cstdint</text>
</a>
</g>
</g>
<!-- Node1&#45;&gt;Node2 -->
<g id="edge1_Node000001_Node000002" class="edge">
<title>Node1&#45;&gt;Node2</title>
<g id="a_edge1_Node000001_Node000002"><a xlink:title=" ">
<path fill="none" stroke="#63b8ff" d="M50.83,-109.9C32.77,-102.34 14.6,-90.96 4.07,-74 -4.93,-59.5 3.54,-40.85 12.45,-27.51"/>
<polygon fill="#63b8ff" stroke="#63b8ff" points="15.41,-29.39 18.48,-19.25 9.76,-25.26 15.41,-29.39"/>
</a>
</g>
</g>
<!-- Node3 -->
<g id="Node000003" class="node">
<title>Node3</title>
<g id="a_Node000003"><a xlink:title=" ">
<polygon fill="#e0e0e0" stroke="#999999" points="118.07,-19 74.07,-19 74.07,0 118.07,0 118.07,-19"/>
<text text-anchor="middle" x="96.07" y="-7" font-family="Helvetica,sans-Serif" font-size="10.00">string</text>
</a>
</g>
</g>
<!-- Node1&#45;&gt;Node3 -->
<g id="edge2_Node000001_Node000003" class="edge">
<title>Node1&#45;&gt;Node3</title>
<g id="a_edge2_Node000001_Node000003"><a xlink:title=" ">
<path fill="none" stroke="#63b8ff" d="M141.93,-109.96C168.4,-97.58 197.13,-77.98 183.07,-55 171.16,-35.53 147.74,-24.23 128.2,-17.9"/>
<polygon fill="#63b8ff" stroke="#63b8ff" points="128.99,-14.48 118.41,-15.02 127.02,-21.2 128.99,-14.48"/>
</a>
</g>
</g>
<!-- Node4 -->
<g id="Node000004" class="node">
<title>Node4</title>
<g id="a_Node000004"><a xlink:title=" ">
<polygon fill="#e0e0e0" stroke="#999999" points="173.57,-74 126.57,-74 126.57,-55 173.57,-55 173.57,-74"/>
<text text-anchor="middle" x="150.07" y="-62" font-family="Helvetica,sans-Serif" font-size="10.00">vector</text>
</a>
</g>
</g>
<!-- Node1&#45;&gt;Node4 -->
<g id="edge3_Node000001_Node000004" class="edge">
<title>Node1&#45;&gt;Node4</title>
<g id="a_edge3_Node000001_Node000004"><a xlink:title=" ">
<path fill="none" stroke="#63b8ff" d="M115.97,-109.84C122.37,-101.52 130.49,-90.96 137.2,-82.23"/>
<polygon fill="#63b8ff" stroke="#63b8ff" points="140.01,-84.33 143.33,-74.27 134.46,-80.06 140.01,-84.33"/>
</a>
</g>
</g>
<!-- Node5 -->
<g id="Node000005" class="node">
<title>Node5</title>
<g id="a_Node000005"><a xlink:href="WaveCategory_8h.html" target="_top" xlink:title=" ">
<polygon fill="white" stroke="#666666" points="108.57,-74 13.57,-74 13.57,-55 108.57,-55 108.57,-74"/>
<text text-anchor="middle" x="61.07" y="-62" font-family="Helvetica,sans-Serif" font-size="10.00">WaveCategory.h</text>
</a>
</g>
</g>
<!-- Node1&#45;&gt;Node5 -->
<g id="edge4_Node000001_Node000005" class="edge">
<title>Node1&#45;&gt;Node5</title>
<g id="a_edge4_Node000001_Node000005"><a xlink:title=" ">
<path fill="none" stroke="#63b8ff" d="M94.42,-109.84C88.23,-101.61 80.39,-91.18 73.86,-82.51"/>
<polygon fill="#63b8ff" stroke="#63b8ff" points="76.48,-80.15 67.67,-74.27 70.88,-84.36 76.48,-80.15"/>
</a>
</g>
</g>
<!-- Node5&#45;&gt;Node2 -->
<g id="edge5_Node000005_Node000002" class="edge">
<title>Node5&#45;&gt;Node2</title>
<g id="a_edge5_Node000005_Node000002"><a xlink:title=" ">
<path fill="none" stroke="#63b8ff" d="M55.29,-54.75C50.45,-47.42 43.4,-36.73 37.43,-27.7"/>
<polygon fill="#63b8ff" stroke="#63b8ff" points="40.18,-25.5 31.75,-19.09 34.34,-29.36 40.18,-25.5"/>
</a>
</g>
</g>
<!-- Node5&#45;&gt;Node3 -->
<g id="edge6_Node000005_Node000003" class="edge">
<title>Node5&#45;&gt;Node3</title>
<g id="a_edge6_Node000005_Node000003"><a xlink:title=" ">
<path fill="none" stroke="#63b8ff" d="M66.85,-54.75C71.7,-47.42 78.75,-36.73 84.72,-27.7"/>
<polygon fill="#63b8ff" stroke="#63b8ff" points="87.81,-29.36 90.4,-19.09 81.97,-25.5 87.81,-29.36"/>
</a>
</g>
</g>
</g>
</svg>
</svg>

<style type='text/css'>
<![CDATA[
[data-mouse-over-selected='false'] { opacity: 0.7; }
[data-mouse-over-selected='true']  { opacity: 1.0; }
]]>
</style>
<script type="application/ecmascript"><![CDATA[
document.addEventListener('DOMContentLoaded', (event) => {
  highlightEdges();
  highlightAdjacentNodes();
});
]]></script>
</svg>
