<?xml version="1.0" encoding="UTF-8" standalone="no"?>
<!DOCTYPE svg PUBLIC "-//W3C//DTD SVG 1.1//EN"
 "http://www.w3.org/Graphics/SVG/1.1/DTD/svg11.dtd">
<!-- Generated by graphviz version 2.43.0 (0)
 -->
<!-- Title: Source/DSP/Oscillators/DWGSOscillator.cpp Pages: 1 -->
<svg width="388pt" height="258pt"
 viewBox="0.00 0.00 388.29 258.00" xmlns="http://www.w3.org/2000/svg" xmlns:xlink="http://www.w3.org/1999/xlink">

<svg id="main" version="1.1" xmlns="http://www.w3.org/2000/svg" xmlns:xlink="http://www.w3.org/1999/xlink" xml:space="preserve" onload="init(evt)">
<style type="text/css"><![CDATA[
.node, .edge {opacity: 0.7;}
.node.selected, .edge.selected {opacity: 1;}
.edge:hover path { stroke: red; }
.edge:hover polygon { stroke: red; fill: red; }
]]></style>
<script type="application/ecmascript" xlink:href="svg.min.js"/>
<svg id="graph" class="graph">
<g id="graph0" class="graph" transform="scale(1 1) rotate(0) translate(4 254)">
<title>Source/DSP/Oscillators/DWGSOscillator.cpp</title>
<!-- Node1 -->
<g id="Node000001" class="node">
<title>Node1</title>
<g id="a_Node000001"><a xlink:title=" ">
<polygon fill="#999999" stroke="#666666" points="269.79,-250 142.79,-250 142.79,-220 269.79,-220 269.79,-250"/>
<text text-anchor="start" x="150.79" y="-238" font-family="Helvetica,sans-Serif" font-size="10.00">Source/DSP/Oscillators</text>
<text text-anchor="middle" x="206.29" y="-227" font-family="Helvetica,sans-Serif" font-size="10.00">/DWGSOscillator.cpp</text>
</a>
</g>
</g>
<!-- Node2 -->
<g id="Node000002" class="node">
<title>Node2</title>
<g id="a_Node000002"><a xlink:href="DWGSOscillator_8h.html" target="_top" xlink:title=" ">
<polygon fill="white" stroke="#666666" points="156.29,-184 54.29,-184 54.29,-165 156.29,-165 156.29,-184"/>
<text text-anchor="middle" x="105.29" y="-172" font-family="Helvetica,sans-Serif" font-size="10.00">DWGSOscillator.h</text>
</a>
</g>
</g>
<!-- Node1&#45;&gt;Node2 -->
<g id="edge1_Node000001_Node000002" class="edge">
<title>Node1&#45;&gt;Node2</title>
<g id="a_edge1_Node000001_Node000002"><a xlink:title=" ">
<path fill="none" stroke="#63b8ff" d="M182.1,-219.99C166,-210.66 144.95,-198.47 128.96,-189.21"/>
<polygon fill="#63b8ff" stroke="#63b8ff" points="130.61,-186.12 120.21,-184.14 127.11,-192.18 130.61,-186.12"/>
</a>
</g>
</g>
<!-- Node8 -->
<g id="Node000008" class="node">
<title>Node8</title>
<g id="a_Node000008"><a xlink:title=" ">
<polygon fill="#e0e0e0" stroke="#999999" points="238.29,-184 174.29,-184 174.29,-165 238.29,-165 238.29,-184"/>
<text text-anchor="middle" x="206.29" y="-172" font-family="Helvetica,sans-Serif" font-size="10.00">algorithm</text>
</a>
</g>
</g>
<!-- Node1&#45;&gt;Node8 -->
<g id="edge9_Node000001_Node000008" class="edge">
<title>Node1&#45;&gt;Node8</title>
<g id="a_edge9_Node000001_Node000008"><a xlink:title=" ">
<path fill="none" stroke="#63b8ff" d="M206.29,-219.84C206.29,-212.21 206.29,-202.7 206.29,-194.45"/>
<polygon fill="#63b8ff" stroke="#63b8ff" points="209.79,-194.27 206.29,-184.27 202.79,-194.27 209.79,-194.27"/>
</a>
</g>
</g>
<!-- Node9 -->
<g id="Node000009" class="node">
<title>Node9</title>
<g id="a_Node000009"><a xlink:href="DSPUtils_8h.html" target="_top" xlink:title=" ">
<polygon fill="white" stroke="#666666" points="380.29,-184 256.29,-184 256.29,-165 380.29,-165 380.29,-184"/>
<text text-anchor="middle" x="318.29" y="-172" font-family="Helvetica,sans-Serif" font-size="10.00">../Common/DSPUtils.h</text>
</a>
</g>
</g>
<!-- Node1&#45;&gt;Node9 -->
<g id="edge10_Node000001_Node000009" class="edge">
<title>Node1&#45;&gt;Node9</title>
<g id="a_edge10_Node000001_Node000009"><a xlink:title=" ">
<path fill="none" stroke="#63b8ff" d="M233.12,-219.99C251.14,-210.58 274.75,-198.24 292.54,-188.95"/>
<polygon fill="#63b8ff" stroke="#63b8ff" points="294.51,-191.87 301.75,-184.14 291.27,-185.67 294.51,-191.87"/>
</a>
</g>
</g>
<!-- Node3 -->
<g id="Node000003" class="node">
<title>Node3</title>
<g id="a_Node000003"><a xlink:href="DWGSTables_8h.html" target="_top" xlink:title=" ">
<polygon fill="white" stroke="#666666" points="148.79,-129 61.79,-129 61.79,-110 148.79,-110 148.79,-129"/>
<text text-anchor="middle" x="105.29" y="-117" font-family="Helvetica,sans-Serif" font-size="10.00">DWGSTables.h</text>
</a>
</g>
</g>
<!-- Node2&#45;&gt;Node3 -->
<g id="edge2_Node000002_Node000003" class="edge">
<title>Node2&#45;&gt;Node3</title>
<g id="a_edge2_Node000002_Node000003"><a xlink:title=" ">
<path fill="none" stroke="#63b8ff" d="M105.29,-164.75C105.29,-157.8 105.29,-147.85 105.29,-139.13"/>
<polygon fill="#63b8ff" stroke="#63b8ff" points="108.79,-139.09 105.29,-129.09 101.79,-139.09 108.79,-139.09"/>
</a>
</g>
</g>
<!-- Node4 -->
<g id="Node000004" class="node">
<title>Node4</title>
<g id="a_Node000004"><a xlink:title=" ">
<polygon fill="#e0e0e0" stroke="#999999" points="51.29,-19 1.29,-19 1.29,0 51.29,0 51.29,-19"/>
<text text-anchor="middle" x="26.29" y="-7" font-family="Helvetica,sans-Serif" font-size="10.00">cstdint</text>
</a>
</g>
</g>
<!-- Node3&#45;&gt;Node4 -->
<g id="edge3_Node000003_Node000004" class="edge">
<title>Node3&#45;&gt;Node4</title>
<g id="a_edge3_Node000003_Node000004"><a xlink:title=" ">
<path fill="none" stroke="#63b8ff" d="M61.74,-110.78C40.6,-104.6 17.06,-93.58 4.29,-74 -5.03,-59.71 3.48,-41.02 12.49,-27.63"/>
<polygon fill="#63b8ff" stroke="#63b8ff" points="15.49,-29.45 18.59,-19.32 9.85,-25.3 15.49,-29.45"/>
</a>
</g>
</g>
<!-- Node5 -->
<g id="Node000005" class="node">
<title>Node5</title>
<g id="a_Node000005"><a xlink:title=" ">
<polygon fill="#e0e0e0" stroke="#999999" points="118.29,-19 74.29,-19 74.29,0 118.29,0 118.29,-19"/>
<text text-anchor="middle" x="96.29" y="-7" font-family="Helvetica,sans-Serif" font-size="10.00">string</text>
</a>
</g>
</g>
<!-- Node3&#45;&gt;Node5 -->
<g id="edge4_Node000003_Node000005" class="edge">
<title>Node3&#45;&gt;Node5</title>
<g id="a_edge4_Node000003_Node000005"><a xlink:title=" ">
<path fill="none" stroke="#63b8ff" d="M131.7,-109.96C159.53,-99.44 197.42,-79.87 182.29,-55 170.53,-35.68 147.38,-24.37 128.06,-18"/>
<polygon fill="#63b8ff" stroke="#63b8ff" points="128.96,-14.62 118.38,-15.1 126.95,-21.32 128.96,-14.62"/>
</a>
</g>
</g>
<!-- Node6 -->
<g id="Node000006" class="node">
<title>Node6</title>
<g id="a_Node000006"><a xlink:title=" ">
<polygon fill="#e0e0e0" stroke="#999999" points="173.79,-74 126.79,-74 126.79,-55 173.79,-55 173.79,-74"/>
<text text-anchor="middle" x="150.29" y="-62" font-family="Helvetica,sans-Serif" font-size="10.00">vector</text>
</a>
</g>
</g>
<!-- Node3&#45;&gt;Node6 -->
<g id="edge5_Node000003_Node000006" class="edge">
<title>Node3&#45;&gt;Node6</title>
<g id="a_edge5_Node000003_Node000006"><a xlink:title=" ">
<path fill="none" stroke="#63b8ff" d="M112.72,-109.75C119.14,-102.18 128.6,-91.05 136.41,-81.84"/>
<polygon fill="#63b8ff" stroke="#63b8ff" points="139.19,-83.98 143,-74.09 133.86,-79.45 139.19,-83.98"/>
</a>
</g>
</g>
<!-- Node7 -->
<g id="Node000007" class="node">
<title>Node7</title>
<g id="a_Node000007"><a xlink:href="WaveCategory_8h.html" target="_top" xlink:title=" ">
<polygon fill="white" stroke="#666666" points="108.79,-74 13.79,-74 13.79,-55 108.79,-55 108.79,-74"/>
<text text-anchor="middle" x="61.29" y="-62" font-family="Helvetica,sans-Serif" font-size="10.00">WaveCategory.h</text>
</a>
</g>
</g>
<!-- Node3&#45;&gt;Node7 -->
<g id="edge6_Node000003_Node000007" class="edge">
<title>Node3&#45;&gt;Node7</title>
<g id="a_edge6_Node000003_Node000007"><a xlink:title=" ">
<path fill="none" stroke="#63b8ff" d="M98.02,-109.75C91.75,-102.18 82.5,-91.05 74.86,-81.84"/>
<polygon fill="#63b8ff" stroke="#63b8ff" points="77.5,-79.55 68.42,-74.09 72.12,-84.02 77.5,-79.55"/>
</a>
</g>
</g>
<!-- Node7&#45;&gt;Node4 -->
<g id="edge7_Node000007_Node000004" class="edge">
<title>Node7&#45;&gt;Node4</title>
<g id="a_edge7_Node000007_Node000004"><a xlink:title=" ">
<path fill="none" stroke="#63b8ff" d="M55.51,-54.75C50.67,-47.42 43.61,-36.73 37.65,-27.7"/>
<polygon fill="#63b8ff" stroke="#63b8ff" points="40.39,-25.5 31.96,-19.09 34.55,-29.36 40.39,-25.5"/>
</a>
</g>
</g>
<!-- Node7&#45;&gt;Node5 -->
<g id="edge8_Node000007_Node000005" class="edge">
<title>Node7&#45;&gt;Node5</title>
<g id="a_edge8_Node000007_Node000005"><a xlink:title=" ">
<path fill="none" stroke="#63b8ff" d="M67.07,-54.75C71.91,-47.42 78.97,-36.73 84.94,-27.7"/>
<polygon fill="#63b8ff" stroke="#63b8ff" points="88.03,-29.36 90.62,-19.09 82.19,-25.5 88.03,-29.36"/>
</a>
</g>
</g>
<!-- Node10 -->
<g id="Node000010" class="node">
<title>Node10</title>
<g id="a_Node000010"><a xlink:title=" ">
<polygon fill="#e0e0e0" stroke="#999999" points="378.79,-129 257.79,-129 257.79,-110 378.79,-110 378.79,-129"/>
<text text-anchor="middle" x="318.29" y="-117" font-family="Helvetica,sans-Serif" font-size="10.00">SynthCore/DSPUtils.h</text>
</a>
</g>
</g>
<!-- Node9&#45;&gt;Node10 -->
<g id="edge11_Node000009_Node000010" class="edge">
<title>Node9&#45;&gt;Node10</title>
<g id="a_edge11_Node000009_Node000010"><a xlink:title=" ">
<path fill="none" stroke="#63b8ff" d="M318.29,-164.75C318.29,-157.8 318.29,-147.85 318.29,-139.13"/>
<polygon fill="#63b8ff" stroke="#63b8ff" points="321.79,-139.09 318.29,-129.09 314.79,-139.09 321.79,-139.09"/>
</a>
</g>
</g>
</g>
</svg>
</svg>

<style type='text/css'>
<![CDATA[
[data-mouse-over-selected='false'] { opacity: 0.7; }
[data-mouse-over-selected='true']  { opacity: 1.0; }
]]>
</style>
<script type="application/ecmascript"><![CDATA[
document.addEventListener('DOMContentLoaded', (event) => {
  highlightEdges();
  highlightAdjacentNodes();
});
]]></script>
</svg>
