<?xml version="1.0" encoding="UTF-8" standalone="no"?>
<!DOCTYPE svg PUBLIC "-//W3C//DTD SVG 1.1//EN"
 "http://www.w3.org/Graphics/SVG/1.1/DTD/svg11.dtd">
<!-- Generated by graphviz version 2.43.0 (0)
 -->
<!-- Title: Source/State/MS2000FactoryBank.h Pages: 1 -->
<svg width="925pt" height="214pt"
 viewBox="0.00 0.00 925.00 214.00" xmlns="http://www.w3.org/2000/svg" xmlns:xlink="http://www.w3.org/1999/xlink">
<g id="graph0" class="graph" transform="scale(1 1) rotate(0) translate(4 210)">
<title>Source/State/MS2000FactoryBank.h</title>
<!-- Node1 -->
<g id="Node000001" class="node">
<title>Node1</title>
<g id="a_Node000001"><a xlink:title=" ">
<polygon fill="#999999" stroke="#666666" points="791.5,-206 636.5,-206 636.5,-176 791.5,-176 791.5,-206"/>
<text text-anchor="start" x="644.5" y="-194" font-family="Helvetica,sans-Serif" font-size="10.00">Source/State/MS2000Factory</text>
<text text-anchor="middle" x="714" y="-183" font-family="Helvetica,sans-Serif" font-size="10.00">Bank.h</text>
</a>
</g>
</g>
<!-- Node2 -->
<g id="Node000002" class="node">
<title>Node2</title>
<g id="a_Node000002"><a xlink:href="MS2000ProgramData_8h.html" target="_top" xlink:title=" ">
<polygon fill="white" stroke="#666666" points="648,-140 484,-140 484,-121 648,-121 648,-140"/>
<text text-anchor="middle" x="566" y="-128" font-family="Helvetica,sans-Serif" font-size="10.00">../MIDI/MS2000ProgramData.h</text>
</a>
</g>
</g>
<!-- Node1&#45;&gt;Node2 -->
<g id="edge1_Node000001_Node000002" class="edge">
<title>Node1&#45;&gt;Node2</title>
<g id="a_edge1_Node000001_Node000002"><a xlink:title=" ">
<path fill="none" stroke="#63b8ff" d="M678.55,-175.99C653.86,-166.23 621.22,-153.33 597.45,-143.93"/>
<polygon fill="#63b8ff" stroke="#63b8ff" points="598.44,-140.56 587.86,-140.14 595.87,-147.07 598.44,-140.56"/>
</a>
</g>
</g>
<!-- Node6 -->
<g id="Node000006" class="node">
<title>Node6</title>
<g id="a_Node000006"><a xlink:title=" ">
<polygon fill="#e0e0e0" stroke="#999999" points="44,-19 0,-19 0,0 44,0 44,-19"/>
<text text-anchor="middle" x="22" y="-7" font-family="Helvetica,sans-Serif" font-size="10.00">string</text>
</a>
</g>
</g>
<!-- Node1&#45;&gt;Node6 -->
<g id="edge15_Node000001_Node000006" class="edge">
<title>Node1&#45;&gt;Node6</title>
<g id="a_edge15_Node000001_Node000006"><a xlink:title=" ">
<path fill="none" stroke="#63b8ff" d="M636.43,-190.35C472.56,-189.25 99.69,-176.52 21,-85 7.86,-69.71 11.09,-45.43 15.63,-28.76"/>
<polygon fill="#63b8ff" stroke="#63b8ff" points="19.01,-29.67 18.64,-19.09 12.32,-27.59 19.01,-29.67"/>
</a>
</g>
</g>
<!-- Node7 -->
<g id="Node000007" class="node">
<title>Node7</title>
<g id="a_Node000007"><a xlink:title=" ">
<polygon fill="#e0e0e0" stroke="#999999" points="810.5,-19 763.5,-19 763.5,0 810.5,0 810.5,-19"/>
<text text-anchor="middle" x="787" y="-7" font-family="Helvetica,sans-Serif" font-size="10.00">vector</text>
</a>
</g>
</g>
<!-- Node1&#45;&gt;Node7 -->
<g id="edge16_Node000001_Node000007" class="edge">
<title>Node1&#45;&gt;Node7</title>
<g id="a_edge16_Node000001_Node000007"><a xlink:title=" ">
<path fill="none" stroke="#63b8ff" d="M729,-175.72C747.51,-156.97 778,-122.04 790,-85 795.97,-66.57 793.93,-44.22 791.21,-28.84"/>
<polygon fill="#63b8ff" stroke="#63b8ff" points="794.64,-28.13 789.21,-19.03 787.78,-29.52 794.64,-28.13"/>
</a>
</g>
</g>
<!-- Node13 -->
<g id="Node000013" class="node">
<title>Node13</title>
<g id="a_Node000013"><a xlink:title=" ">
<polygon fill="#e0e0e0" stroke="#999999" points="917,-140 853,-140 853,-121 917,-121 917,-140"/>
<text text-anchor="middle" x="885" y="-128" font-family="Helvetica,sans-Serif" font-size="10.00">algorithm</text>
</a>
</g>
</g>
<!-- Node1&#45;&gt;Node13 -->
<g id="edge14_Node000001_Node000013" class="edge">
<title>Node1&#45;&gt;Node13</title>
<g id="a_edge14_Node000001_Node000013"><a xlink:title=" ">
<path fill="none" stroke="#63b8ff" d="M754.96,-175.99C784,-166.05 822.55,-152.86 850.12,-143.43"/>
<polygon fill="#63b8ff" stroke="#63b8ff" points="851.42,-146.69 859.75,-140.14 849.15,-140.06 851.42,-146.69"/>
</a>
</g>
</g>
<!-- Node3 -->
<g id="Node000003" class="node">
<title>Node3</title>
<g id="a_Node000003"><a xlink:title=" ">
<polygon fill="#e0e0e0" stroke="#999999" points="691,-79.5 649,-79.5 649,-60.5 691,-60.5 691,-79.5"/>
<text text-anchor="middle" x="670" y="-67.5" font-family="Helvetica,sans-Serif" font-size="10.00">array</text>
</a>
</g>
</g>
<!-- Node2&#45;&gt;Node3 -->
<g id="edge2_Node000002_Node000003" class="edge">
<title>Node2&#45;&gt;Node3</title>
<g id="a_edge2_Node000002_Node000003"><a xlink:title=" ">
<path fill="none" stroke="#63b8ff" d="M581.35,-120.87C598.32,-111.32 625.9,-95.81 645.79,-84.62"/>
<polygon fill="#63b8ff" stroke="#63b8ff" points="647.59,-87.62 654.59,-79.67 644.16,-81.52 647.59,-87.62"/>
</a>
</g>
</g>
<!-- Node4 -->
<g id="Node000004" class="node">
<title>Node4</title>
<g id="a_Node000004"><a xlink:title=" ">
<polygon fill="#e0e0e0" stroke="#999999" points="759,-79.5 709,-79.5 709,-60.5 759,-60.5 759,-79.5"/>
<text text-anchor="middle" x="734" y="-67.5" font-family="Helvetica,sans-Serif" font-size="10.00">cstdint</text>
</a>
</g>
</g>
<!-- Node2&#45;&gt;Node4 -->
<g id="edge3_Node000002_Node000004" class="edge">
<title>Node2&#45;&gt;Node4</title>
<g id="a_edge3_Node000002_Node000004"><a xlink:title=" ">
<path fill="none" stroke="#63b8ff" d="M593.66,-120.94C620.89,-112.36 663.58,-98.53 700,-85 701.42,-84.47 702.87,-83.92 704.33,-83.36"/>
<polygon fill="#63b8ff" stroke="#63b8ff" points="705.96,-86.48 713.96,-79.53 703.37,-79.97 705.96,-86.48"/>
</a>
</g>
</g>
<!-- Node5 -->
<g id="Node000005" class="node">
<title>Node5</title>
<g id="a_Node000005"><a xlink:title=" ">
<polygon fill="#e0e0e0" stroke="#999999" points="100,-79.5 50,-79.5 50,-60.5 100,-60.5 100,-79.5"/>
<text text-anchor="middle" x="75" y="-67.5" font-family="Helvetica,sans-Serif" font-size="10.00">cstring</text>
</a>
</g>
</g>
<!-- Node2&#45;&gt;Node5 -->
<g id="edge4_Node000002_Node000005" class="edge">
<title>Node2&#45;&gt;Node5</title>
<g id="a_edge4_Node000002_Node000005"><a xlink:title=" ">
<path fill="none" stroke="#63b8ff" d="M483.88,-128.71C391.45,-126.17 237.41,-116.95 109,-85 106.84,-84.46 104.63,-83.81 102.43,-83.08"/>
<polygon fill="#63b8ff" stroke="#63b8ff" points="103.61,-79.79 93.02,-79.57 101.16,-86.35 103.61,-79.79"/>
</a>
</g>
</g>
<!-- Node2&#45;&gt;Node6 -->
<g id="edge5_Node000002_Node000006" class="edge">
<title>Node2&#45;&gt;Node6</title>
<g id="a_edge5_Node000002_Node000006"><a xlink:title=" ">
<path fill="none" stroke="#63b8ff" d="M483.99,-127.7C344.78,-123.89 74,-112.96 41,-85 24.96,-71.41 21.46,-46.34 21.15,-29.07"/>
<polygon fill="#63b8ff" stroke="#63b8ff" points="24.65,-29.09 21.3,-19.03 17.65,-28.98 24.65,-29.09"/>
</a>
</g>
</g>
<!-- Node2&#45;&gt;Node7 -->
<g id="edge6_Node000002_Node000007" class="edge">
<title>Node2&#45;&gt;Node7</title>
<g id="a_edge6_Node000002_Node000007"><a xlink:title=" ">
<path fill="none" stroke="#63b8ff" d="M642.77,-120.99C692.05,-113.98 750.06,-102.36 768,-85 782.81,-70.67 786.67,-46.53 787.4,-29.63"/>
<polygon fill="#63b8ff" stroke="#63b8ff" points="790.9,-29.32 787.5,-19.29 783.9,-29.25 790.9,-29.32"/>
</a>
</g>
</g>
<!-- Node8 -->
<g id="Node000008" class="node">
<title>Node8</title>
<g id="a_Node000008"><a xlink:href="ParameterRegistry_8gen_8h.html" target="_top" xlink:title=" ">
<polygon fill="white" stroke="#666666" points="291.5,-79.5 118.5,-79.5 118.5,-60.5 291.5,-60.5 291.5,-79.5"/>
<text text-anchor="middle" x="205" y="-67.5" font-family="Helvetica,sans-Serif" font-size="10.00">../State/ParameterRegistry.gen.h</text>
</a>
</g>
</g>
<!-- Node2&#45;&gt;Node8 -->
<g id="edge7_Node000002_Node000008" class="edge">
<title>Node2&#45;&gt;Node8</title>
<g id="a_edge7_Node000002_Node000008"><a xlink:title=" ">
<path fill="none" stroke="#63b8ff" d="M513.51,-120.99C448.27,-110.42 337.08,-92.4 267.51,-81.13"/>
<polygon fill="#63b8ff" stroke="#63b8ff" points="267.99,-77.66 257.56,-79.52 266.87,-84.57 267.99,-77.66"/>
</a>
</g>
</g>
<!-- Node10 -->
<g id="Node000010" class="node">
<title>Node10</title>
<g id="a_Node000010"><a xlink:title=" ">
<polygon fill="#e0e0e0" stroke="#999999" points="482.5,-85 309.5,-85 309.5,-55 482.5,-55 482.5,-85"/>
<text text-anchor="start" x="317.5" y="-73" font-family="Helvetica,sans-Serif" font-size="10.00">../../ABDSharedCode</text>
<text text-anchor="middle" x="396" y="-62" font-family="Helvetica,sans-Serif" font-size="10.00">/HardwareDrivers/SysExCodec.h</text>
</a>
</g>
</g>
<!-- Node2&#45;&gt;Node10 -->
<g id="edge11_Node000002_Node000010" class="edge">
<title>Node2&#45;&gt;Node10</title>
<g id="a_edge11_Node000002_Node000010"><a xlink:title=" ">
<path fill="none" stroke="#63b8ff" d="M541.28,-120.99C516.6,-112.5 477.95,-99.2 446.72,-88.45"/>
<polygon fill="#63b8ff" stroke="#63b8ff" points="447.47,-85.01 436.87,-85.06 445.19,-91.63 447.47,-85.01"/>
</a>
</g>
</g>
<!-- Node11 -->
<g id="Node000011" class="node">
<title>Node11</title>
<g id="a_Node000011"><a xlink:title=" ">
<polygon fill="#e0e0e0" stroke="#999999" points="557,-79.5 501,-79.5 501,-60.5 557,-60.5 557,-79.5"/>
<text text-anchor="middle" x="529" y="-67.5" font-family="Helvetica,sans-Serif" font-size="10.00">iomanip</text>
</a>
</g>
</g>
<!-- Node2&#45;&gt;Node11 -->
<g id="edge12_Node000002_Node000011" class="edge">
<title>Node2&#45;&gt;Node11</title>
<g id="a_edge12_Node000002_Node000011"><a xlink:title=" ">
<path fill="none" stroke="#63b8ff" d="M560.54,-120.87C555.13,-112.31 546.69,-98.97 539.9,-88.24"/>
<polygon fill="#63b8ff" stroke="#63b8ff" points="542.79,-86.25 534.48,-79.67 536.87,-89.99 542.79,-86.25"/>
</a>
</g>
</g>
<!-- Node12 -->
<g id="Node000012" class="node">
<title>Node12</title>
<g id="a_Node000012"><a xlink:title=" ">
<polygon fill="#e0e0e0" stroke="#999999" points="631,-79.5 575,-79.5 575,-60.5 631,-60.5 631,-79.5"/>
<text text-anchor="middle" x="603" y="-67.5" font-family="Helvetica,sans-Serif" font-size="10.00">sstream</text>
</a>
</g>
</g>
<!-- Node2&#45;&gt;Node12 -->
<g id="edge13_Node000002_Node000012" class="edge">
<title>Node2&#45;&gt;Node12</title>
<g id="a_edge13_Node000002_Node000012"><a xlink:title=" ">
<path fill="none" stroke="#63b8ff" d="M571.46,-120.87C576.87,-112.31 585.31,-98.97 592.1,-88.24"/>
<polygon fill="#63b8ff" stroke="#63b8ff" points="595.13,-89.99 597.52,-79.67 589.21,-86.25 595.13,-89.99"/>
</a>
</g>
</g>
<!-- Node8&#45;&gt;Node6 -->
<g id="edge8_Node000008_Node000006" class="edge">
<title>Node8&#45;&gt;Node6</title>
<g id="a_edge8_Node000008_Node000006"><a xlink:title=" ">
<path fill="none" stroke="#63b8ff" d="M178.39,-60.49C145.37,-49.94 89.11,-31.95 53.84,-20.68"/>
<polygon fill="#63b8ff" stroke="#63b8ff" points="54.64,-17.26 44.05,-17.55 52.51,-23.93 54.64,-17.26"/>
</a>
</g>
</g>
<!-- Node8&#45;&gt;Node7 -->
<g id="edge9_Node000008_Node000007" class="edge">
<title>Node8&#45;&gt;Node7</title>
<g id="a_edge9_Node000008_Node000007"><a xlink:title=" ">
<path fill="none" stroke="#63b8ff" d="M259.19,-60.49C272.51,-58.54 286.76,-56.58 300,-55 469.69,-34.76 673.6,-18.84 753.02,-12.96"/>
<polygon fill="#63b8ff" stroke="#63b8ff" points="753.67,-16.42 763.39,-12.19 753.16,-9.44 753.67,-16.42"/>
</a>
</g>
</g>
<!-- Node9 -->
<g id="Node000009" class="node">
<title>Node9</title>
<g id="a_Node000009"><a xlink:title=" ">
<polygon fill="#e0e0e0" stroke="#999999" points="251.5,-19 158.5,-19 158.5,0 251.5,0 251.5,-19"/>
<text text-anchor="middle" x="205" y="-7" font-family="Helvetica,sans-Serif" font-size="10.00">unordered_map</text>
</a>
</g>
</g>
<!-- Node8&#45;&gt;Node9 -->
<g id="edge10_Node000008_Node000009" class="edge">
<title>Node8&#45;&gt;Node9</title>
<g id="a_edge10_Node000008_Node000009"><a xlink:title=" ">
<path fill="none" stroke="#63b8ff" d="M205,-60.37C205,-52.25 205,-39.81 205,-29.39"/>
<polygon fill="#63b8ff" stroke="#63b8ff" points="208.5,-29.17 205,-19.17 201.5,-29.17 208.5,-29.17"/>
</a>
</g>
</g>
</g>
</svg>
