<?xml version="1.0" encoding="UTF-8" standalone="no"?>
<!DOCTYPE svg PUBLIC "-//W3C//DTD SVG 1.1//EN"
 "http://www.w3.org/Graphics/SVG/1.1/DTD/svg11.dtd">
<!-- Generated by graphviz version 2.43.0 (0)
 -->
<!-- Title: Source/DSP/Oscillators/VAOscillator.h Pages: 1 -->
<svg width="859pt" height="456pt"
 viewBox="0.00 0.00 859.00 456.00" xmlns="http://www.w3.org/2000/svg" xmlns:xlink="http://www.w3.org/1999/xlink">
<g id="graph0" class="graph" transform="scale(1 1) rotate(0) translate(4 452)">
<title>Source/DSP/Oscillators/VAOscillator.h</title>
<!-- Node1 -->
<g id="Node000001" class="node">
<title>Node1</title>
<g id="a_Node000001"><a xlink:title=" ">
<polygon fill="#999999" stroke="#666666" points="706,-448 579,-448 579,-418 706,-418 706,-448"/>
<text text-anchor="start" x="587" y="-436" font-family="Helvetica,sans-Serif" font-size="10.00">Source/DSP/Oscillators</text>
<text text-anchor="middle" x="642.5" y="-425" font-family="Helvetica,sans-Serif" font-size="10.00">/VAOscillator.h</text>
</a>
</g>
</g>
<!-- Node2 -->
<g id="Node000002" class="node">
<title>Node2</title>
<g id="a_Node000002"><a xlink:href="Voice_8h.html" target="_top" xlink:title=" ">
<polygon fill="white" stroke="#666666" points="607,-310.5 494,-310.5 494,-291.5 607,-291.5 607,-310.5"/>
<text text-anchor="middle" x="550.5" y="-298.5" font-family="Helvetica,sans-Serif" font-size="10.00">Source/Core/Voice.h</text>
</a>
</g>
</g>
<!-- Node1&#45;&gt;Node2 -->
<g id="edge1_Node000001_Node000002" class="edge">
<title>Node1&#45;&gt;Node2</title>
<g id="a_edge1_Node000001_Node000002"><a xlink:title=" ">
<path fill="none" stroke="#63b8ff" d="M603.21,-412.6C590.76,-404.68 578.04,-394.43 569.5,-382 554.07,-359.52 551.09,-326.05 550.57,-310.51"/>
<polygon fill="#63b8ff" stroke="#63b8ff" points="601.78,-415.82 612.16,-417.94 605.37,-409.81 601.78,-415.82"/>
</a>
</g>
</g>
<!-- Node15 -->
<g id="Node000015" class="node">
<title>Node15</title>
<g id="a_Node000015"><a xlink:href="OSC2Modulator_8h.html" target="_top" xlink:title=" ">
<polygon fill="white" stroke="#666666" points="706,-382 579,-382 579,-352 706,-352 706,-382"/>
<text text-anchor="start" x="587" y="-370" font-family="Helvetica,sans-Serif" font-size="10.00">Source/DSP/Oscillators</text>
<text text-anchor="middle" x="642.5" y="-359" font-family="Helvetica,sans-Serif" font-size="10.00">/OSC2Modulator.h</text>
</a>
</g>
</g>
<!-- Node1&#45;&gt;Node15 -->
<g id="edge17_Node000001_Node000015" class="edge">
<title>Node1&#45;&gt;Node15</title>
<g id="a_edge17_Node000001_Node000015"><a xlink:title=" ">
<path fill="none" stroke="#63b8ff" d="M642.5,-407.54C642.5,-398.96 642.5,-389.61 642.5,-382.16"/>
<polygon fill="#63b8ff" stroke="#63b8ff" points="639,-407.8 642.5,-417.8 646,-407.8 639,-407.8"/>
</a>
</g>
</g>
<!-- Node17 -->
<g id="Node000017" class="node">
<title>Node17</title>
<g id="a_Node000017"><a xlink:href="VAOscillator_8cpp.html" target="_top" xlink:title=" ">
<polygon fill="white" stroke="#666666" points="851,-382 724,-382 724,-352 851,-352 851,-382"/>
<text text-anchor="start" x="732" y="-370" font-family="Helvetica,sans-Serif" font-size="10.00">Source/DSP/Oscillators</text>
<text text-anchor="middle" x="787.5" y="-359" font-family="Helvetica,sans-Serif" font-size="10.00">/VAOscillator.cpp</text>
</a>
</g>
</g>
<!-- Node1&#45;&gt;Node17 -->
<g id="edge20_Node000001_Node000017" class="edge">
<title>Node1&#45;&gt;Node17</title>
<g id="a_edge20_Node000001_Node000017"><a xlink:title=" ">
<path fill="none" stroke="#63b8ff" d="M683.77,-413.78C706.63,-403.69 734.62,-391.34 755.75,-382.01"/>
<polygon fill="#63b8ff" stroke="#63b8ff" points="682.06,-410.71 674.32,-417.95 684.88,-417.12 682.06,-410.71"/>
</a>
</g>
</g>
<!-- Node3 -->
<g id="Node000003" class="node">
<title>Node3</title>
<g id="a_Node000003"><a xlink:href="Voice_8cpp.html" target="_top" xlink:title=" ">
<polygon fill="white" stroke="#666666" points="455,-250 330,-250 330,-231 455,-231 455,-250"/>
<text text-anchor="middle" x="392.5" y="-238" font-family="Helvetica,sans-Serif" font-size="10.00">Source/Core/Voice.cpp</text>
</a>
</g>
</g>
<!-- Node2&#45;&gt;Node3 -->
<g id="edge2_Node000002_Node000003" class="edge">
<title>Node2&#45;&gt;Node3</title>
<g id="a_edge2_Node000002_Node000003"><a xlink:title=" ">
<path fill="none" stroke="#63b8ff" d="M517.76,-287.88C487.22,-276.57 442.43,-259.99 415.5,-250.02"/>
<polygon fill="#63b8ff" stroke="#63b8ff" points="516.93,-291.3 527.53,-291.49 519.36,-284.74 516.93,-291.3"/>
</a>
</g>
</g>
<!-- Node4 -->
<g id="Node000004" class="node">
<title>Node4</title>
<g id="a_Node000004"><a xlink:href="VoiceManager_8h.html" target="_top" xlink:title=" ">
<polygon fill="white" stroke="#666666" points="628,-250 473,-250 473,-231 628,-231 628,-250"/>
<text text-anchor="middle" x="550.5" y="-238" font-family="Helvetica,sans-Serif" font-size="10.00">Source/Core/VoiceManager.h</text>
</a>
</g>
</g>
<!-- Node2&#45;&gt;Node4 -->
<g id="edge3_Node000002_Node000004" class="edge">
<title>Node2&#45;&gt;Node4</title>
<g id="a_edge3_Node000002_Node000004"><a xlink:title=" ">
<path fill="none" stroke="#63b8ff" d="M550.5,-281.16C550.5,-270.74 550.5,-258.3 550.5,-250.17"/>
<polygon fill="#63b8ff" stroke="#63b8ff" points="547,-281.37 550.5,-291.37 554,-281.37 547,-281.37"/>
</a>
</g>
</g>
<!-- Node14 -->
<g id="Node000014" class="node">
<title>Node14</title>
<g id="a_Node000014"><a xlink:href="WasmBridge_8cpp.html" target="_top" xlink:title=" ">
<polygon fill="white" stroke="#666666" points="799,-195 632,-195 632,-176 799,-176 799,-195"/>
<text text-anchor="middle" x="715.5" y="-183" font-family="Helvetica,sans-Serif" font-size="10.00">Source/Wasm/WasmBridge.cpp</text>
</a>
</g>
</g>
<!-- Node2&#45;&gt;Node14 -->
<g id="edge16_Node000002_Node000014" class="edge">
<title>Node2&#45;&gt;Node14</title>
<g id="a_edge16_Node000002_Node000014"><a xlink:title=" ">
<path fill="none" stroke="#63b8ff" d="M575.81,-286.6C593.27,-277.04 616.8,-263.53 636.5,-250 662.61,-232.07 691.06,-207.96 705.65,-195.23"/>
<polygon fill="#63b8ff" stroke="#63b8ff" points="573.92,-283.64 566.79,-291.48 577.25,-289.8 573.92,-283.64"/>
</a>
</g>
</g>
<!-- Node5 -->
<g id="Node000005" class="node">
<title>Node5</title>
<g id="a_Node000005"><a xlink:href="SynthEngine_8h.html" target="_top" xlink:title=" ">
<polygon fill="white" stroke="#666666" points="428.5,-195 280.5,-195 280.5,-176 428.5,-176 428.5,-195"/>
<text text-anchor="middle" x="354.5" y="-183" font-family="Helvetica,sans-Serif" font-size="10.00">Source/Core/SynthEngine.h</text>
</a>
</g>
</g>
<!-- Node4&#45;&gt;Node5 -->
<g id="edge4_Node000004_Node000005" class="edge">
<title>Node4&#45;&gt;Node5</title>
<g id="a_edge4_Node000004_Node000005"><a xlink:title=" ">
<path fill="none" stroke="#63b8ff" d="M509.12,-228.31C472.45,-218.39 419.67,-204.12 386.24,-195.08"/>
<polygon fill="#63b8ff" stroke="#63b8ff" points="508.44,-231.75 519.01,-230.98 510.27,-225 508.44,-231.75"/>
</a>
</g>
</g>
<!-- Node13 -->
<g id="Node000013" class="node">
<title>Node13</title>
<g id="a_Node000013"><a xlink:href="VoiceManager_8cpp.html" target="_top" xlink:title=" ">
<polygon fill="white" stroke="#666666" points="614,-195 447,-195 447,-176 614,-176 614,-195"/>
<text text-anchor="middle" x="530.5" y="-183" font-family="Helvetica,sans-Serif" font-size="10.00">Source/Core/VoiceManager.cpp</text>
</a>
</g>
</g>
<!-- Node4&#45;&gt;Node13 -->
<g id="edge14_Node000004_Node000013" class="edge">
<title>Node4&#45;&gt;Node13</title>
<g id="a_edge14_Node000004_Node000013"><a xlink:title=" ">
<path fill="none" stroke="#63b8ff" d="M543.61,-221.24C540.26,-212.37 536.4,-202.14 533.74,-195.09"/>
<polygon fill="#63b8ff" stroke="#63b8ff" points="540.39,-222.63 547.2,-230.75 546.94,-220.16 540.39,-222.63"/>
</a>
</g>
</g>
<!-- Node4&#45;&gt;Node14 -->
<g id="edge15_Node000004_Node000014" class="edge">
<title>Node4&#45;&gt;Node14</title>
<g id="a_edge15_Node000004_Node000014"><a xlink:title=" ">
<path fill="none" stroke="#63b8ff" d="M586.93,-227.8C617.72,-217.91 661.12,-203.97 688.78,-195.08"/>
<polygon fill="#63b8ff" stroke="#63b8ff" points="585.46,-224.59 577.01,-230.98 587.6,-231.26 585.46,-224.59"/>
</a>
</g>
</g>
<!-- Node6 -->
<g id="Node000006" class="node">
<title>Node6</title>
<g id="a_Node000006"><a xlink:href="SynthEngine_8cpp.html" target="_top" xlink:title=" ">
<polygon fill="white" stroke="#666666" points="159,-134.5 0,-134.5 0,-115.5 159,-115.5 159,-134.5"/>
<text text-anchor="middle" x="79.5" y="-122.5" font-family="Helvetica,sans-Serif" font-size="10.00">Source/Core/SynthEngine.cpp</text>
</a>
</g>
</g>
<!-- Node5&#45;&gt;Node6 -->
<g id="edge5_Node000005_Node000006" class="edge">
<title>Node5&#45;&gt;Node6</title>
<g id="a_edge5_Node000005_Node000006"><a xlink:title=" ">
<path fill="none" stroke="#63b8ff" d="M304.64,-173.89C251.54,-162.6 168.54,-144.94 119.54,-134.52"/>
<polygon fill="#63b8ff" stroke="#63b8ff" points="304,-177.34 314.51,-175.99 305.46,-170.49 304,-177.34"/>
</a>
</g>
</g>
<!-- Node7 -->
<g id="Node000007" class="node">
<title>Node7</title>
<g id="a_Node000007"><a xlink:href="BridgeActions_8cpp.html" target="_top" xlink:title=" ">
<polygon fill="white" stroke="#666666" points="350,-134.5 177,-134.5 177,-115.5 350,-115.5 350,-134.5"/>
<text text-anchor="middle" x="263.5" y="-122.5" font-family="Helvetica,sans-Serif" font-size="10.00">Source/Plugin/BridgeActions.cpp</text>
</a>
</g>
</g>
<!-- Node5&#45;&gt;Node7 -->
<g id="edge6_Node000005_Node000007" class="edge">
<title>Node5&#45;&gt;Node7</title>
<g id="a_edge6_Node000005_Node000007"><a xlink:title=" ">
<path fill="none" stroke="#63b8ff" d="M332.19,-170.16C314.9,-159.05 291.52,-144.01 276.98,-134.67"/>
<polygon fill="#63b8ff" stroke="#63b8ff" points="330.77,-173.4 341.07,-175.87 334.55,-167.52 330.77,-173.4"/>
</a>
</g>
</g>
<!-- Node8 -->
<g id="Node000008" class="node">
<title>Node8</title>
<g id="a_Node000008"><a xlink:href="PluginProcessor_8h.html" target="_top" xlink:title=" ">
<polygon fill="white" stroke="#666666" points="712,-134.5 541,-134.5 541,-115.5 712,-115.5 712,-134.5"/>
<text text-anchor="middle" x="626.5" y="-122.5" font-family="Helvetica,sans-Serif" font-size="10.00">Source/Plugin/PluginProcessor.h</text>
</a>
</g>
</g>
<!-- Node5&#45;&gt;Node8 -->
<g id="edge7_Node000005_Node000008" class="edge">
<title>Node5&#45;&gt;Node8</title>
<g id="a_edge7_Node000005_Node000008"><a xlink:title=" ">
<path fill="none" stroke="#63b8ff" d="M404.15,-173.82C456.68,-162.52 538.53,-144.92 586.9,-134.52"/>
<polygon fill="#63b8ff" stroke="#63b8ff" points="403.09,-170.47 394.05,-175.99 404.56,-177.31 403.09,-170.47"/>
</a>
</g>
</g>
<!-- Node12 -->
<g id="Node000012" class="node">
<title>Node12</title>
<g id="a_Node000012"><a xlink:href="ScopeFloatingWindow_8h.html" target="_top" xlink:title=" ">
<polygon fill="white" stroke="#666666" points="523,-140 368,-140 368,-110 523,-110 523,-140"/>
<text text-anchor="start" x="376" y="-128" font-family="Helvetica,sans-Serif" font-size="10.00">Source/Plugin/ScopeFloating</text>
<text text-anchor="middle" x="445.5" y="-117" font-family="Helvetica,sans-Serif" font-size="10.00">Window.h</text>
</a>
</g>
</g>
<!-- Node5&#45;&gt;Node12 -->
<g id="edge12_Node000005_Node000012" class="edge">
<title>Node5&#45;&gt;Node12</title>
<g id="a_edge12_Node000005_Node000012"><a xlink:title=" ">
<path fill="none" stroke="#63b8ff" d="M376.6,-170.29C390.85,-161.13 409.32,-149.26 423.54,-140.11"/>
<polygon fill="#63b8ff" stroke="#63b8ff" points="374.45,-167.52 367.93,-175.87 378.23,-173.4 374.45,-167.52"/>
</a>
</g>
</g>
<!-- Node9 -->
<g id="Node000009" class="node">
<title>Node9</title>
<g id="a_Node000009"><a xlink:href="PluginEditor_8h.html" target="_top" xlink:title=" ">
<polygon fill="white" stroke="#666666" points="559.5,-74 407.5,-74 407.5,-55 559.5,-55 559.5,-74"/>
<text text-anchor="middle" x="483.5" y="-62" font-family="Helvetica,sans-Serif" font-size="10.00">Source/Plugin/PluginEditor.h</text>
</a>
</g>
</g>
<!-- Node8&#45;&gt;Node9 -->
<g id="edge8_Node000008_Node000009" class="edge">
<title>Node8&#45;&gt;Node9</title>
<g id="a_edge8_Node000008_Node000009"><a xlink:title=" ">
<path fill="none" stroke="#63b8ff" d="M596.14,-111.58C568.52,-100.28 528.48,-83.9 504.32,-74.02"/>
<polygon fill="#63b8ff" stroke="#63b8ff" points="595.13,-114.95 605.71,-115.49 597.78,-108.47 595.13,-114.95"/>
</a>
</g>
</g>
<!-- Node11 -->
<g id="Node000011" class="node">
<title>Node11</title>
<g id="a_Node000011"><a xlink:href="PluginProcessor_8cpp.html" target="_top" xlink:title=" ">
<polygon fill="white" stroke="#666666" points="717.5,-19 535.5,-19 535.5,0 717.5,0 717.5,-19"/>
<text text-anchor="middle" x="626.5" y="-7" font-family="Helvetica,sans-Serif" font-size="10.00">Source/Plugin/PluginProcessor.cpp</text>
</a>
</g>
</g>
<!-- Node8&#45;&gt;Node11 -->
<g id="edge11_Node000008_Node000011" class="edge">
<title>Node8&#45;&gt;Node11</title>
<g id="a_edge11_Node000008_Node000011"><a xlink:title=" ">
<path fill="none" stroke="#63b8ff" d="M626.5,-105.15C626.5,-80.24 626.5,-37.38 626.5,-19.13"/>
<polygon fill="#63b8ff" stroke="#63b8ff" points="623,-105.47 626.5,-115.47 630,-105.47 623,-105.47"/>
</a>
</g>
</g>
<!-- Node10 -->
<g id="Node000010" class="node">
<title>Node10</title>
<g id="a_Node000010"><a xlink:href="PluginEditor_8cpp.html" target="_top" xlink:title=" ">
<polygon fill="white" stroke="#666666" points="517.5,-19 353.5,-19 353.5,0 517.5,0 517.5,-19"/>
<text text-anchor="middle" x="435.5" y="-7" font-family="Helvetica,sans-Serif" font-size="10.00">Source/Plugin/PluginEditor.cpp</text>
</a>
</g>
</g>
<!-- Node9&#45;&gt;Node10 -->
<g id="edge9_Node000009_Node000010" class="edge">
<title>Node9&#45;&gt;Node10</title>
<g id="a_edge9_Node000009_Node000010"><a xlink:title=" ">
<path fill="none" stroke="#63b8ff" d="M468.77,-47.24C460.36,-37.95 450.15,-26.68 443.28,-19.09"/>
<polygon fill="#63b8ff" stroke="#63b8ff" points="466.27,-49.69 475.57,-54.75 471.46,-44.99 466.27,-49.69"/>
</a>
</g>
</g>
<!-- Node9&#45;&gt;Node11 -->
<g id="edge10_Node000009_Node000011" class="edge">
<title>Node9&#45;&gt;Node11</title>
<g id="a_edge10_Node000009_Node000011"><a xlink:title=" ">
<path fill="none" stroke="#63b8ff" d="M516.09,-51.42C542.62,-41.59 579.43,-27.95 603.11,-19.17"/>
<polygon fill="#63b8ff" stroke="#63b8ff" points="514.64,-48.23 506.48,-54.98 517.07,-54.79 514.64,-48.23"/>
</a>
</g>
</g>
<!-- Node12&#45;&gt;Node9 -->
<g id="edge13_Node000012_Node000009" class="edge">
<title>Node12&#45;&gt;Node9</title>
<g id="a_edge13_Node000012_Node000009"><a xlink:title=" ">
<path fill="none" stroke="#63b8ff" d="M460.3,-101.22C466.43,-91.78 473.18,-81.39 477.81,-74.27"/>
<polygon fill="#63b8ff" stroke="#63b8ff" points="457.21,-99.55 454.7,-109.84 463.08,-103.36 457.21,-99.55"/>
</a>
</g>
</g>
<!-- Node15&#45;&gt;Node2 -->
<g id="edge18_Node000015_Node000002" class="edge">
<title>Node15&#45;&gt;Node2</title>
<g id="a_edge18_Node000015_Node000002"><a xlink:title=" ">
<path fill="none" stroke="#63b8ff" d="M613.57,-345.87C596.54,-334.03 575.87,-319.65 562.95,-310.66"/>
<polygon fill="#63b8ff" stroke="#63b8ff" points="611.87,-348.96 622.08,-351.8 615.87,-343.21 611.87,-348.96"/>
</a>
</g>
</g>
<!-- Node16 -->
<g id="Node000016" class="node">
<title>Node16</title>
<g id="a_Node000016"><a xlink:href="OSC2Modulator_8cpp.html" target="_top" xlink:title=" ">
<polygon fill="white" stroke="#666666" points="752,-316 625,-316 625,-286 752,-286 752,-316"/>
<text text-anchor="start" x="633" y="-304" font-family="Helvetica,sans-Serif" font-size="10.00">Source/DSP/Oscillators</text>
<text text-anchor="middle" x="688.5" y="-293" font-family="Helvetica,sans-Serif" font-size="10.00">/OSC2Modulator.cpp</text>
</a>
</g>
</g>
<!-- Node15&#45;&gt;Node16 -->
<g id="edge19_Node000015_Node000016" class="edge">
<title>Node15&#45;&gt;Node16</title>
<g id="a_edge19_Node000015_Node000016"><a xlink:title=" ">
<path fill="none" stroke="#63b8ff" d="M658.65,-343.53C665.19,-334.43 672.55,-324.19 678.32,-316.16"/>
<polygon fill="#63b8ff" stroke="#63b8ff" points="655.7,-341.63 652.71,-351.8 661.39,-345.72 655.7,-341.63"/>
</a>
</g>
</g>
</g>
</svg>
